<?xml version="1.0" encoding="UTF-8"?><svg id="Illustrations" xmlns="http://www.w3.org/2000/svg" viewBox="0 0 300 300"><polygon points="58.5 174.5 80.75 213.51 95.66 208.65 94.55 185.73 58.5 174.5" fill="#e95420"/><path d="M74.69,114.22l14.5-8c.39-.21.83-.27,1.27-.17l4.88,1.22-3.75-19.53-14.2,6.22-4.03,13.85,1.33,6.4Z" fill="#e95420"/><polygon points="175.36 127.32 184.73 129.67 198.95 113.44 175.36 127.32" fill="#e95420"/><polygon points="108 223.2 96.98 211.9 83.9 216.16 94.38 223.2 108 223.2" fill="#e95420"/><polygon points="37.78 220.34 67.14 196.71 54.85 175.15 38.31 204.18 37.78 220.34" fill="#e95420"/><polygon points="49.92 223.2 50.21 214.69 39.79 223.2 49.92 223.2" fill="#e95420"/><path d="M234.01,164.55l2.92-23.63-29.6-5.59,15.9-11.11-14.33-15.3-4.3,36.77c-.01.1-.03.2-.06.29l-11.97,39.89,41.45-21.33Z" fill="#e95420"/><polygon points="225.7 126.76 215.47 133.5 236.33 137.26 225.7 126.76" fill="#e95420"/><polygon points="231.9 98.34 237.06 106.38 212.79 107.95 227.17 123.31 241.09 137.03 255 133.03 260.07 115.78 231.9 98.34" fill="#e95420"/><path d="M176.35,144.54c-.09.11-.2.2-.32.28h0s-26.74,18.54-26.74,18.54l9.17,16.43,30.04,7.42,12.64-42.13,3.89-33.28-28.69,32.74Z" fill="#e95420"/><polygon points="137.4 141.4 132.14 171 170.13 144.66 137.4 141.4" fill="#e95420"/><polygon points="122.17 117.6 136.92 137.83 174.31 141.56 182.14 132.63 122.17 117.6" fill="#e95420"/><polygon points="134.11 139.92 116.87 116.28 90.28 109.62 74.89 118.1 57.02 170.37 111.57 187.36 128.07 173.89 134.11 139.92" fill="#e95420"/><polygon points="246.5 223.2 232.62 207.01 214.92 213.65 236.57 223.2 246.5 223.2" fill="#e95420"/><polygon points="231.48 203.7 233.69 168.65 192.47 189.86 210.82 211.44 231.48 203.7" fill="#e95420"/><polygon points="224.74 93.81 213.18 82.24 209.49 104.64 231.15 103.5 224.74 93.81" fill="#e95420"/></svg>