<?xml version="1.0" encoding="UTF-8"?><svg id="Illustrations" xmlns="http://www.w3.org/2000/svg" viewBox="0 0 300 300"><polygon points="104.01 56.86 96.5 59.62 103.83 72.54 112.74 67.11 104.01 56.86" fill="#e95420"/><polygon points="139.67 62.73 131.82 71.82 143 74.15 148.49 64.02 139.67 62.73" fill="#e95420"/><path d="M130.44,47.15l-22.93,8.43,9.23,10.83c.33.39.48.9.4,1.41-.08.51-.38.95-.82,1.22l-10.76,6.56,2.95,5.2,18.95-9.29,10.19-11.79c.39-.46.98-.68,1.58-.59l9.79,1.43-1.06-5.21-17.52-8.21Z" fill="#e95420"/><polygon points="140.06 124.77 121.34 162.22 142.01 187.07 140.06 124.77" fill="#e95420"/><path d="M89.32,69.5c-.22.36-.56.62-.96.75l-15.17,4.76,1.24,3,30.18,3.01-10.71-18.89-4.57,7.38Z" fill="#e95420"/><path d="M150.47,67.72l-5.01,9.25c-.37.68-1.12,1.03-1.89.88h0s-14.78-3.09-14.78-3.09l-13.21,6.47-4.81,50.58,8.81,26.1,19.73-39.45,14.14-31.34-2.71-18.1-.27-1.31Z" fill="#e95420"/><polygon points="193.17 211.29 175.43 198.41 169.59 223.69 190.41 261.23 199.45 244.97 193.17 211.29" fill="#e95420"/><path d="M164.32,230.92l12.6-54.5-16.41-42.39c-.05-.12-.08-.25-.1-.37l-6.02-40.15-11.05,24.48,2.31,74.05c0,.28-.05.56-.17.81l-20.98,44.2,8.33,22.38,31.48-28.51Z" fill="#e95420"/><polygon points="126.2 251.69 102.75 263.09 130.22 263.09 126.2 251.69" fill="#e95420"/><polygon points="117.02 161.3 112.31 147.36 92.87 178.89 93.59 181.78 117.02 161.3" fill="#e95420"/><polygon points="112.67 169.76 108.61 196.45 122.77 232.56 141.85 192.36 118.68 164.5 112.67 169.76" fill="#e95420"/><polygon points="213.32 250 202.16 247.28 193.38 263.09 217.47 263.09 213.32 250" fill="#e95420"/><polygon points="238.47 263.09 238.47 256.13 217.3 250.97 221.14 263.09 238.47 263.09" fill="#e95420"/></svg>