<?xml version="1.0" encoding="UTF-8"?><svg id="Illustrations" xmlns="http://www.w3.org/2000/svg" viewBox="0 0 300 300"><polygon points="243.93 172.95 246.42 174.52 244.16 146.61 242.85 147.11 243.51 163 243.93 172.95" fill="none"/><circle cx="87.77" cy="141.05" r="2.35" fill="none"/><polygon points="230.65 123.23 231.14 123.23 231.14 105.91 222.27 97.6 216.65 112.83 230.65 123.23" fill="#e95420"/><polygon points="214.03 84.74 210.43 92.33 219.01 93.18 214.03 84.74" fill="#e95420"/><polygon points="214.45 108.68 218.88 96.69 210.29 95.84 214.45 108.68" fill="#e95420"/><polygon points="243.26 97.73 234.64 105.81 234.64 123.23 235.02 123.23 249.04 112.8 243.26 97.73" fill="#e95420"/><polygon points="251.64 84.74 246.66 93.18 255.37 92.6 251.64 84.74" fill="#e95420"/><polygon points="246.6 96.69 251.21 108.69 255.29 96.11 246.6 96.69" fill="#e95420"/><polygon points="241.19 143.99 234.63 126.73 231.19 126.73 216.66 153.26 241.19 143.99" fill="#e95420"/><polygon points="153.77 168.33 136.47 156.4 94.79 211.15 153.77 168.33" fill="#e95420"/><polygon points="84.68 218.65 132.42 155.94 64.53 159.95 68.22 192.78 84.68 218.65" fill="#e95420"/><polygon points="241.86 147.48 217.88 156.54 242.9 172.31 242 150.73 241.86 147.48" fill="#e95420"/><polygon points="242 150.73 242.9 172.31 242.9 172.31 242 150.73" fill="#e95420"/><polygon points="159.84 170.22 200.24 227.16 190.45 169.92 159.84 170.22" fill="#e95420"/><polygon points="165.3 246.18 200.73 233.89 157.37 172.78 130.36 241.61 165.3 246.18" fill="#e95420"/><polygon points="213.25 157.76 193.94 169.56 204.53 231.43 228.56 209.83 242.27 176.05 213.25 157.76" fill="#e95420"/><polygon points="98.09 231.69 78.75 251.09 103.2 250.99 98.09 231.69" fill="#e95420"/><polygon points="107.38 207.95 103.16 221.64 114.16 210.61 107.38 207.95" fill="#e95420"/><path d="M118.95,209.42l9.23,28.17,25.43-64.81-44.3,32.17,8.62,3.39c.49.19.86.59,1.02,1.08Z" fill="#e95420"/><polygon points="125.73 241.36 116.51 213.22 100.95 228.83 106.62 250.25 125.73 241.36" fill="#e95420"/><polygon points="98.05 226.37 103.3 209.3 87.17 221.02 98.05 226.37" fill="#e95420"/><path d="M91.38,127.15l-9.21,1.81-8.94,5.85-7.78,21.58,66.61-3.94-17.9-17.95-22.77-7.36ZM87.77,144.39c-1.85,0-3.35-1.5-3.35-3.35s1.5-3.35,3.35-3.35,3.35,1.5,3.35,3.35-1.5,3.35-3.35,3.35Z" fill="#e95420"/><path d="M43.95,78.13c-.06,0-.11.02-.14.05-.09.06-.18.16-.09.32l28.15,53,7.06-4.69-34.79-48.57c-.06-.08-.13-.11-.19-.11Z" fill="#e95420"/></svg>