<?xml version="1.0" encoding="UTF-8"?><svg id="Illustrations" xmlns="http://www.w3.org/2000/svg" viewBox="0 0 300 300"><polygon points="71.39 161.72 39.62 207.99 43.29 207.99 87.08 174.75 71.39 161.72" fill="#e95420"/><polygon points="258.25 140.37 261.71 137.76 242.89 127.2 241.93 128.62 258.25 140.37" fill="#e95420"/><polygon points="63.41 135.19 52.9 128.13 55.88 140.3 63.41 135.19" fill="#e95420"/><path d="M171.12,159.24l2.18-17.43c.02-.15.06-.3.11-.44l12-30h-18.52l-49.55,24.09,40.14,31.53,13.64-7.75Z" fill="#e95420"/><polygon points="45.63 162.25 65.07 153.44 64.86 138.52 38.84 156.15 45.63 162.25" fill="#e95420"/><polygon points="32.26 135.78 40.29 139.97 43.49 132.76 32.26 135.78" fill="#e95420"/><polygon points="133.49 182.89 125.01 182.69 111.7 207.99 112.67 207.99 134.41 184.02 133.49 182.89" fill="#e95420"/><polygon points="128.79 179.12 68.42 138.56 68.64 153.76 96.38 177.86 128.79 179.12" fill="#e95420"/><polygon points="47.92 133.41 40.11 150.98 52.73 142.43 50.36 132.76 47.92 133.41" fill="#e95420"/><polygon points="151.15 207.99 155.17 172.31 137.34 181.91 150.04 207.99 151.15 207.99" fill="#e95420"/><polygon points="263.17 152.47 263.17 149.85 248.88 151.67 247.36 154.34 263.17 152.47" fill="#e95420"/><polygon points="263.17 141.12 260.06 143.48 260.06 146.65 263.17 146.26 263.17 141.12" fill="#e95420"/><polygon points="204.39 207.99 204.39 155.26 201.2 155.26 195.07 168.19 203.79 207.99 204.39 207.99" fill="#e95420"/><polygon points="203.24 137.25 188.5 113.26 176.81 142.48 173.62 167.68 186.54 170.11 191.81 166.75 198.36 152.91 203.24 137.25" fill="#e95420"/><polygon points="207 135.61 243.43 154.03 245.41 150.56 194.9 116.3 207 135.61" fill="#e95420"/><polygon points="113.3 136.81 63.93 131.25 135.1 179.07 154.08 168.85 113.3 136.81" fill="#e95420"/><polygon points="93.83 127.27 89.21 130.68 112.17 133.27 116.13 131.34 93.83 127.27" fill="#e95420"/></svg>