<?xml version="1.0" encoding="UTF-8"?><svg id="Illustrations" xmlns="http://www.w3.org/2000/svg" viewBox="0 0 300 300"><polygon points="240.54 187.66 249.45 178.02 213.77 131.99 213.77 180.37 240.25 187.45 240.54 187.66" fill="#e95420"/><polygon points="160.87 187.94 176.67 179.66 154.61 154.71 131.78 171.62 147.21 187.94 160.87 187.94" fill="#e95420"/><polygon points="95.25 137.86 77.14 144.76 90.36 151.26 101.39 144.36 95.25 137.86" fill="#e95420"/><polygon points="128.91 173.74 116.86 187.94 142.57 187.94 129.05 173.64 128.91 173.74" fill="#e95420"/><polygon points="109.48 191.42 126.72 171.17 118.16 162.1 97.55 175.64 109.48 191.42" fill="#e95420"/><polygon points="157.32 152.7 178.45 176.58 185.1 147.72 180.88 135.24 157.32 152.7" fill="#e95420"/><polygon points="90.09 215.84 107.26 194.07 96.18 179.43 86.52 215.84 90.09 215.84" fill="#e95420"/><polygon points="155.08 150.16 178.53 132.8 157.99 122.55 140.01 133.12 155.08 150.16" fill="#e95420"/><polygon points="134.77 132.29 127.04 123.55 94.35 132 108.96 147.47 134.77 132.29" fill="#e95420"/><path d="M103.75,146.86l-71.53,44.72c-.53.33-.73,1.01-.46,1.57.26.56.9.83,1.49.64l59.94-19.32,22.61-14.86-12.05-12.76Z" fill="#e95420"/><polygon points="178.83 129.18 174.98 117.8 149.58 109.41 158.18 118.88 178.83 129.18" fill="#e95420"/><polygon points="154.45 120.72 126.01 117.29 137.73 130.55 154.45 120.72" fill="#e95420"/><polygon points="243.3 189.64 263.06 203.82 267.12 200.81 251.54 180.72 243.3 189.64" fill="#e95420"/><polygon points="111.34 149.98 129.45 169.15 152.36 152.18 137.05 134.86 111.34 149.98" fill="#e95420"/><polygon points="179.77 181.84 164.76 189.71 194.01 215.84 198.99 215.84 189.87 181.93 179.77 181.84" fill="#e95420"/><polygon points="188.57 147.68 181.47 178.49 210.39 178.74 210.39 136.56 175.55 108.98 188.6 147.54 188.57 147.68" fill="#e95420"/></svg>