<?xml version="1.0" encoding="UTF-8"?><svg id="Illustrations" xmlns="http://www.w3.org/2000/svg" viewBox="0 0 300 300"><polygon points="56.26 108.09 93.44 135.52 68.73 81.74 64.83 97.73 55.19 99.54 56.26 108.09" fill="#e95420"/><path d="M168.71,182.8l87.14,66.67c.2.15.36.03.42-.03.06-.06.18-.22.03-.42l-75.71-100.84-18.25-1.2,6.37,35.81Z" fill="#e95420"/><path d="M175.01,144.32l-58.66-53.42c-10.4,3.34-28.7,9.23-34.42,11.18l17.12,37.25,75.97,4.98Z" fill="#e95420"/><polygon points="152.59 112.12 130.56 99.1 154.08 120.52 152.59 112.12" fill="#e95420"/><polygon points="172.21 137.04 156.96 116.72 158.33 124.39 172.21 137.04" fill="#e95420"/><polygon points="141.19 145.61 137.6 155.08 151.7 162.63 161.57 162.63 158.75 146.76 141.19 145.61" fill="#e95420"/><polygon points="123.34 149.68 124.15 144.49 111.79 143.68 123.34 149.68" fill="#e95420"/><path d="M131.81,160.46l5.73-15.09-9.88-.65-2.77,17.93c2.08-.68,4.81-1.54,6.92-2.19Z" fill="#e95420"/><polygon points="106.55 170.61 110.47 163.04 106.55 161.94 106.55 170.61" fill="#e95420"/><polygon points="120.66 162.58 121.59 156.63 109.45 154.65 106.76 158.69 120.66 162.58" fill="#e95420"/><polygon points="128.75 164.97 122.53 167.22 115.33 165.39 113.6 167.88 120.16 240.89 151.48 240.89 128.75 164.97" fill="#e95420"/><polygon points="61.96 94.71 66.11 77.73 53.62 74.67 43.19 90.73 48.81 97.18 61.96 94.71" fill="#e95420"/><polygon points="41.69 94.89 35.46 103.98 44.96 98.64 41.69 94.89" fill="#e95420"/></svg>