<?xml version="1.0" encoding="UTF-8"?><svg id="Illustrations" xmlns="http://www.w3.org/2000/svg" viewBox="0 0 300 300"><polygon points="131.51 259.93 125.98 254.4 117.82 259.93 131.51 259.93" fill="#e95420"/><polygon points="216.43 170.7 212.13 175.62 212.13 181.24 224.26 184.05 216.43 170.7" fill="#e95420"/><path d="M214.32,250.7l-6.2-18.59c-.17-.51-.11-1.07.17-1.53l15.54-25.4-8.92-19.55-19.56-4.74-2.17-3.6.31,10.92q0,.06-6.04,39.16l20.2,31.3,6.65-7.98Z" fill="#e95420"/><path d="M119.88,213.42c.2-.45.58-.81,1.04-.98l66.28-24.46-32.32-17.04h-18.56c-20.18,19.75-25.29,24.57-27.13,26.23l6.96,24.76,3.72-8.51Z" fill="#e95420"/><polygon points="185.01 163.75 170.23 174.9 189.76 185.19 189.36 170.91 185.01 163.75" fill="#e95420"/><polygon points="206.17 153.21 203.71 149.01 195.92 153.02 181.12 151.17 188.77 162.88 206.17 153.21" fill="#e95420"/><polygon points="168.24 198.87 163.61 230.58 183.95 226.26 189.4 191.06 168.24 198.87" fill="#e95420"/><path d="M154.21,229.17l5.71,1.47,4.43-30.33-41.42,15.29-15.32,34.99,4.89,8.55,9.99-6.77,30.18-22.88c.44-.33,1.02-.45,1.56-.31Z" fill="#e95420"/><polygon points="219.71 128.48 214.31 142.52 206.87 147.16 209.35 151.34 226.15 140.87 219.71 128.48" fill="#e95420"/><polygon points="216.79 253.44 211.39 259.93 227.96 259.93 216.79 253.44" fill="#e95420"/><polygon points="226.07 167.41 219.67 168.78 227.5 182 230.69 169.97 226.07 167.41" fill="#e95420"/><path d="M227.84,144.12l-16.63,10.37-20.53,11.52,7.39,12.16,6.37,1.31h0s.52.11.52.11l3.52.82v-5.46c0-.44.16-.87.45-1.2l7.15-7.68,9.89-2.36c.13-.03.26-.04.38-.04.3,0,.61.08.88.23l4.39,2.43,2.36-10.3-6.15-11.89ZM203.47,167.8c-1.22,0-2.21-.99-2.21-2.21s.99-2.21,2.21-2.21,2.21.99,2.21,2.21-.99,2.21-2.21,2.21ZM221.68,157.61c-1.22,0-2.21-.99-2.21-2.21s.99-2.21,2.21-2.21,2.21.99,2.21,2.21-.99,2.21-2.21,2.21Z" fill="#e95420"/><polygon points="126.81 168.74 126.93 109.28 109.36 137.63 126.81 168.74" fill="#e95420"/><polygon points="124.16 96.5 115.38 72.38 98.91 61.35 99.18 79.85 124.16 96.5" fill="#e95420"/><polygon points="66.44 59.18 66.26 70.01 95.12 78.84 94.89 59.69 66.44 59.18" fill="#e95420"/><polygon points="109.12 145.39 109.1 192.18 126.18 175.78 109.12 145.39" fill="#e95420"/><polygon points="108.87 130.83 126.25 102.79 99.75 85.1 108.87 130.83" fill="#e95420"/></svg>