<?xml version="1.0" encoding="UTF-8"?><svg id="Illustrations" xmlns="http://www.w3.org/2000/svg" viewBox="0 0 300 300"><path d="M57.48,130.82c-1.13,0-2.05,1.01-2.05,2.25s.92,2.25,2.05,2.25,2.05-1.01,2.05-2.25-.92-2.25-2.05-2.25Z" fill="none"/><polygon points="173.26 146.45 168.2 145.99 153.19 162.45 160.02 187.18 175.2 147.07 173.26 146.45" fill="#e95420"/><path d="M41.02,135.6l31.73,21.76-10-31.87-21.73,10.11ZM57.48,136.33c-1.68,0-3.05-1.46-3.05-3.25s1.37-3.25,3.05-3.25,3.05,1.46,3.05,3.25-1.37,3.25-3.05,3.25Z" fill="#e95420"/><polygon points="178.67 148.18 169.79 171.64 241.14 178 257.29 173.27 178.67 148.18" fill="#e95420"/><path d="M148.51,170.87l.86-9.14c.03-.3.13-.59.28-.85l-.02-.03.24-.27,13.7-15.02-65.89-6.02,10.59,28.18,40.23,3.15Z" fill="#e95420"/><polygon points="77.27 191.11 87.35 191.11 88.15 170.01 77.27 191.11" fill="#e95420"/><polygon points="63.01 191.11 72.72 191.11 76.13 184.49 63.01 191.11" fill="#e95420"/><polygon points="146.57 191.11 146.96 185.26 134.71 191.11 146.57 191.11" fill="#e95420"/><polygon points="152.04 171.9 150.24 191.11 157.35 191.11 152.04 171.9" fill="#e95420"/><polygon points="222.8 187.33 263.47 180.15 262.47 175.72 222.8 187.33" fill="#e95420"/><polygon points="94.38 141.11 79.15 160.95 87.27 163.7 96.2 145.94 94.38 141.11" fill="#e95420"/><polygon points="97.95 150.6 92.05 162.33 91.11 187.33 104.95 169.21 97.95 150.6" fill="#e95420"/><polygon points="76.75 158.01 92.03 138.12 66.83 126.38 76.75 158.01" fill="#e95420"/></svg>