<?xml version="1.0" encoding="UTF-8"?><svg id="Illustrations" xmlns="http://www.w3.org/2000/svg" viewBox="0 0 300 300"><polygon points="152.93 114.39 145.3 114.73 143.06 126.67 152.93 114.39" fill="#e95420"/><polygon points="144.29 98.67 145.85 111.2 155.27 110.78 158.67 93.95 144.29 98.67" fill="#e95420"/><polygon points="158.17 90.44 146.11 73.68 136.97 87.23 143.03 95.4 158.17 90.44" fill="#e95420"/><polygon points="127.48 64.16 123.33 80.63 134.17 85.12 143.45 71.36 127.48 64.16" fill="#e95420"/><path d="M159.67,199.35l-.44-31.23-.76-42.47-7.08-3.76-9.98,12.41c-.49.61-1.38.82-2.1.49-.73-.33-1.14-1.12-.99-1.91l2.81-14.99-10.87-4.37-44.4,38.45,13.26,50.14,60.53-2.77Z" fill="#e95420"/><polygon points="119.51 106.84 119.51 83.41 67.19 83.41 43.57 138.09 119.51 106.84" fill="#e95420"/><polygon points="162.78 171.81 163.17 199.19 194.68 197.74 162.78 171.81" fill="#e95420"/><polygon points="247.86 181.52 248.54 149.94 246.5 148.36 241.72 176.97 247.86 181.52" fill="#e95420"/><polygon points="74.71 157.03 126.62 112.06 125.05 111.43 71.46 145.79 74.71 157.03" fill="#e95420"/><polygon points="58.92 149.68 120.35 110.28 56.33 136.62 58.92 149.68" fill="#e95420"/><polygon points="97.36 63.46 71.95 79.91 119.89 79.91 124.05 63.46 97.36 63.46" fill="#e95420"/><polygon points="217.55 212.11 230.48 222.91 243.76 143.51 222.76 127.01 161.99 126.36 162.72 167.24 200.52 198 217.5 212.06 217.55 212.11" fill="#e95420"/><polygon points="217.2 212.47 217.2 212.47 217.2 212.47 217.2 212.47" fill="#e95420"/><polygon points="99.44 205.61 95.64 253.73 98.4 253.73 119.48 204.69 99.44 205.61" fill="#e95420"/><polygon points="200.39 253.73 229.08 226.3 216.96 216.18 197.75 253.73 200.39 253.73" fill="#e95420"/></svg>