<?xml version="1.0" encoding="UTF-8"?><svg id="Illustrations" xmlns="http://www.w3.org/2000/svg" viewBox="0 0 300 300"><polygon points="169.69 194.22 179.23 154.36 154.73 175.07 169.69 194.22" fill="#e95420"/><polygon points="42.98 184.97 86.54 177.45 97.4 150.72 42.98 184.97" fill="#e95420"/><path d="M127.75,185l-33-11.74c-.59-.21-1.02-.7-1.16-1.31-.14-.61.04-1.24.48-1.68l22.01-22.28h-13.65l-38.87,95.67,64.19-58.67Z" fill="#e95420"/><polygon points="250.73 125.87 252.16 112.32 229.62 95.55 222.36 112.22 250.73 125.87" fill="#e95420"/><polygon points="169.09 141.91 157.19 168.23 179.35 149.49 169.09 141.91" fill="#e95420"/><path d="M211.72,100.35l-20.17,21.17-8.16,31.06,31.33,19.1,3.45-58.7c.01-.21.06-.42.15-.62l7.25-16.63-13.85,4.62Z" fill="#e95420"/><polygon points="182.5 156.29 176.55 181.16 211.48 173.96 182.5 156.29" fill="#e95420"/><path d="M196.65,180.72l-21.04,4.34-3.27,13.67c-.12.5-.45.93-.9,1.17h0c-.44.24-.98.29-1.47.12l-5.8-2.06,45.36,46.78-12.88-64.01Z" fill="#e95420"/><path d="M250.92,65.15c-.08-.04-.35-.15-.55.14l-18.59,27.35,7.01,5.22,12.33-32.16c.13-.33-.12-.5-.2-.54Z" fill="#e95420"/><path d="M103.81,165.57l-.12-.14-5.29,5.46,42.41,14.9,24.5,8.71-14.51-18.58c-.42-.53-.5-1.25-.22-1.87l14.38-31.81-36.83-.28,5.01,2.69-29.33,20.91Z" fill="#e95420"/><polygon points="126.75 142.36 107.95 161.38 131.25 144.77 126.75 142.36" fill="#e95420"/><polygon points="126.45 141.95 126.28 142.13 126.45 141.95 126.45 141.95" fill="#e95420"/><polygon points="132.19 144.71 104.91 164.17 103.69 165.43 103.81 165.57 133.14 144.65 128.13 141.96 127.06 141.96 132.19 144.71" fill="#e95420"/><path d="M127.06,141.96h-.6s-.18.17-.18.17l-21.36,22.04,27.28-19.45-5.14-2.76ZM126.75,142.36l4.5,2.41-23.3,16.61,18.8-19.02Z" fill="#e95420"/></svg>