<?xml version="1.0" encoding="UTF-8"?><svg id="Illustrations" xmlns="http://www.w3.org/2000/svg" viewBox="0 0 300 300"><path d="M163.22,66.57l-9.79,14.18,14.02-.65c.73-.03,1.36.37,1.66.98l4.99,10.3,27.06-8.61.8-8.32-18.28-10.37-20.45,2.48Z" fill="#e95420"/><path d="M198.9,87.16l-11.18,3.56,9.2,7.06c.73.56.9,1.59.4,2.35l-7.79,11.79,10.78,9.45,6.54-.94,3.35-12.08-11.29-21.18Z" fill="#e95420"/><path d="M169.7,240.08l-22.19-20.08c-.1-.1-.19-.22-.26-.35l-6.42-12.94-26.37,8.66,15.51,24.7h39.73Z" fill="#e95420"/><polygon points="122.48 234.73 87.08 178.34 39.26 133.35 89.13 209.64 122.48 234.73" fill="#e95420"/><path d="M89.65,175.95c.11.1.2.22.28.34h0s22.62,36.03,22.62,36.03l7-2.3-22.24-41.9-52.01-33.91,44.35,41.74Z" fill="#e95420"/><polygon points="152.52 84.29 153.9 87.7 162.8 94.97 170.72 92.45 166.45 83.64 152.52 84.29" fill="#e95420"/><polygon points="189.64 143.62 153.61 119.41 177.08 180.16 210.38 180.16 189.64 143.62" fill="#e95420"/><path d="M183.65,92.01l-20.69,6.58c-.57.18-1.18.06-1.64-.31l-6.99-5.7.82,22.01,23.72,7.1,6.05-9.15-.17-.15,1.14-1.3,7.61-11.52-9.84-7.55Z" fill="#e95420"/><path d="M149.35,216.02l38.3-32.36h-11.77c-.72,0-1.37-.45-1.63-1.12l-24.15-62.51-19.41,58.28,18.66,37.71Z" fill="#e95420"/><path d="M225.8,179.64l-11.08,3.38c-.33.41-.82.64-1.35.64h-8.08l12.51,53.76,8.97-13.86c.2-.3.49-.54.83-.67l6.22-40.77-8.04-2.48Z" fill="#e95420"/><polygon points="201.8 184.04 192.62 184.04 152.96 217.55 191.19 222.24 206.38 223.7 210.14 219.87 201.8 184.04" fill="#e95420"/><path d="M200.01,124.95c-.5.07-1.02-.08-1.4-.42l-11.03-9.67-5.2,7.86,22,6.58,1.44-5.2-5.82.84Z" fill="#e95420"/><path d="M191.94,140.94c.22.15.41.35.55.59l8.29,14.62h5.35v-22.66l-45.59-13.64,31.4,21.1Z" fill="#e95420"/><polygon points="237.28 240.08 228.33 227.61 220.27 240.08 237.28 240.08" fill="#e95420"/><polygon points="174.19 239.41 188.21 225.4 154.05 221.21 174.19 239.41" fill="#e95420"/><polygon points="202.76 159.65 214.06 179.56 240.17 171.6 242.27 159.65 202.76 159.65" fill="#e95420"/><polygon points="256.47 184.06 256.47 171.86 245.52 161.42 243.6 172.32 256.47 184.06" fill="#e95420"/></svg>