<?xml version="1.0" encoding="UTF-8"?><svg id="Illustrations" xmlns="http://www.w3.org/2000/svg" viewBox="0 0 300 300"><path d="M102.63,153.34l-5.76,45.64,43.95,3.11-4.05-10.12c-.26-.65-.11-1.39.38-1.88l30.57-30.7-65.1-6.04Z" fill="#e95420"/><polygon points="191.91 203.12 203.42 205.04 179.29 173.41 191.91 203.12" fill="#e95420"/><path d="M52.12,132.23l16.27,77.46,23.53.62,10.01-79.39-26.56,6.47c-.26.06-.54.06-.8,0l-22.45-5.16Z" fill="#e95420"/><polygon points="84.62 77.18 74.9 73.89 71.68 81.68 86.93 84.5 84.62 77.18" fill="#e95420"/><polygon points="55.08 129.32 74.46 133.77 87.68 121.79 55.08 129.32" fill="#e95420"/><polygon points="92.76 89.38 89.09 88.46 70.31 84.98 53.3 126.14 93 116.96 102.73 108.14 92.76 89.38" fill="#e95420"/><polygon points="103.57 126.91 121.44 122.91 105.03 110.78 81.24 132.35 103.57 126.91" fill="#e95420"/><polygon points="81.27 66.5 76.57 69.84 76.24 70.65 83.32 73.04 81.27 66.5" fill="#e95420"/><polygon points="75.24 254.86 90.73 213.78 72.28 213.29 72.6 254.86 75.24 254.86" fill="#e95420"/><path d="M140.45,191.73l7.18,17.96,7.92,5.28c.62.41.91,1.17.72,1.9l-9.85,38h2.76l21.86-29.68-2.13-62.04-28.47,28.59Z" fill="#e95420"/><path d="M241.16,218.76c-.2-.03-.41-.11-.6-.23l-23.73-13.48-42.47-43.88,38.14,49.99,26.34,14.53,15.26,1.48.75-5.64-13.69-2.78Z" fill="#e95420"/><polygon points="173.89 206.02 186.66 199.71 172.54 166.45 173.89 206.02" fill="#e95420"/></svg>