<?xml version="1.0" encoding="UTF-8"?><svg id="Illustrations" xmlns="http://www.w3.org/2000/svg" viewBox="0 0 300 300"><polygon points="150.78 240.09 170.92 245.83 173.3 230.44 150.78 240.09" fill="#e95420"/><path d="M77.63,162.53c-.25.09-.26.31-.26.38s.03.29.29.36l45.45,11.66,16.1-34-61.58,21.6Z" fill="#e95420"/><path d="M228.91,96.87l-22.38-21.93-23.98-2.86,30.45,47.29-.07.04c.06.21.08.44.06.66l-6.01,53.15h-.07s-3.14,9.26-3.14,9.26l17.79,17.94,16.34-21.33-8.97-82.22Z" fill="#e95420"/><polygon points="193.62 114.27 204.69 162.18 209.35 120.97 193.62 114.27" fill="#e95420"/><path d="M76.8,138.75l31.34-.88c.06-.24.17-.46.32-.66l7.88-10.07-2-10.19-4.8,1.6c-.57.19-1.21.07-1.68-.32l-14.57-12.25-25.31,21.83,8.81,10.93Z" fill="#e95420"/><path d="M136.56,85.86l55.27,23.84,14.85,6.32-28.63-44.46-41.45,13.44c-.28.09-.31.34-.32.41,0,.07,0,.32.28.44Z" fill="#e95420"/><polygon points="201.02 184.69 192.63 184.69 186.51 221.9 205.34 221.57 219.4 203.22 201.02 184.69" fill="#e95420"/><path d="M140.1,197.43c-.05-.54.14-1.06.54-1.44l34.34-32.56-32.1-22.06-17.22,36.36c-.35.74-1.22,1.15-2.02.95l-4.5-1.15,23.14,42.6-2.18-22.7Z" fill="#e95420"/><path d="M111.55,138.95l-.61,8.2,28.78-10.1v-6.06l-17.18-17.16-4.86,1.93,2.25,11.51c.1.5-.03,1.01-.34,1.41l-8.04,10.28Z" fill="#e95420"/><path d="M143.89,240.96h-.06l-.02-.48h0s-.1-3.58-.1-3.58l-16.94,8.72c-.23.12-.2.34-.19.41.02.06.09.28.35.28h32.88l-14.73-4.2c-.57-.16-1.01-.6-1.19-1.15Z" fill="#e95420"/><polygon points="177.46 165.9 143.66 197.95 147.12 233.96 147.12 233.96 147.12 234.02 147.23 237.8 174.82 225.98 182.87 222.46 189.3 183.34 177.46 165.9" fill="#e95420"/><polygon points="109.37 114.92 115.09 113.01 119.84 111.13 113.24 104.54 97.84 105.23 109.37 114.92" fill="#e95420"/></svg>