<?xml version="1.0" encoding="UTF-8"?><svg id="Illustrations" xmlns="http://www.w3.org/2000/svg" viewBox="0 0 300 300"><polygon points="88.53 96.71 73.13 88.04 79.75 101.1 88.53 96.71" fill="#e95420"/><polygon points="75.14 98.28 61.56 75.29 64.5 98.28 75.14 98.28" fill="#e95420"/><polygon points="219.43 217.26 205.62 241.83 229.47 227.3 219.43 217.26" fill="#e95420"/><path d="M126.41,240.03l1.78-17.68,12.57-119.18-31.99,2.5-8.38,40.32c-.16.79-.84,1.36-1.65,1.39l-12.02.44,39.69,92.21Z" fill="#e95420"/><path d="M144.31,102.88l-12.39,117.42,74.45-16.11-17.96-17.97c-.36-.36-.55-.87-.51-1.38h0c.04-.51.31-.98.72-1.28l46.73-33.52-71.86-48.66-19.19,1.5Z" fill="#e95420"/><path d="M85.54,120.13l-9.68-2.01c-.66-.14-1.17-.62-1.34-1.28l-2.1-8.11-35.69,18.87,1.1,9.62,47.71-17.09Z" fill="#e95420"/><path d="M93.52,118.85l6.44,11.99,5.23-25.17-9.74-5.19-1.47,10.23c-.09.64-.52,1.17-1.12,1.39l-10.33,3.82,9.8,2.04c.51.11.94.43,1.19.88Z" fill="#e95420"/><polygon points="38.84 146.06 97.24 143.94 98.86 136.18 91.15 121.84 38.24 140.79 38.84 146.06" fill="#e95420"/><polygon points="77.42 114.09 90.67 109.19 92.17 98.8 75.61 107.08 77.42 114.09" fill="#e95420"/><path d="M248.61,159.25v21.65l13.5,14.83s.04.05.11.02c.06-.04.04-.08.04-.1l-13.64-36.39Z" fill="#e95420"/><polygon points="232.54 225.43 245.11 217.77 245.11 156.64 238.46 152.13 192.35 185.2 232.54 225.43" fill="#e95420"/></svg>