<?xml version="1.0" encoding="UTF-8"?><svg id="Illustrations" xmlns="http://www.w3.org/2000/svg" viewBox="0 0 300 300"><path d="M250.57,62.47s-.02.01-.03.02l.28.3-.25-.32Z" fill="none"/><polygon points="250.38 62.01 250.35 61.99 250.38 62.01 250.38 62.01" fill="none"/><polygon points="250.72 62.32 250.72 62.32 250.71 62.3 250.72 62.32" fill="none"/><polygon points="85.73 128.15 80.85 147.55 92.19 149.48 103.99 137.51 85.73 128.15" fill="#e95420"/><path d="M127.49,201.44l-23.84-41.8-6.29,28.21c-.03.12-.07.24-.13.36l5.67,13.23h24.58Z" fill="#e95420"/><polygon points="162.72 212.18 169.21 204.94 151.86 204.94 146.37 212.18 162.72 212.18" fill="#e95420"/><polygon points="108.38 138.49 104.79 154.56 131.52 201.44 153.12 201.44 164.26 125.32 108.38 138.49" fill="#e95420"/><polygon points="93.4 212.18 99.9 204.94 82.54 204.94 77.05 212.18 93.4 212.18" fill="#e95420"/><polygon points="167.62 126.55 156.65 201.44 188.8 201.44 211.18 166.44 167.62 126.55" fill="#e95420"/><path d="M94.04,152.58c-.39.4-.98.59-1.54.5l-10.91-1.85,13.51,30.65,8.76-39.27-9.83,9.97Z" fill="#e95420"/><polygon points="99.1 201.44 77.79 151.72 41.78 168.93 81.8 201.44 99.1 201.44" fill="#e95420"/><polygon points="232.31 198.33 232.31 198.33 249.19 206.97 253.74 199.99 213.88 168.71 204.16 183.91 232.31 198.33" fill="#e95420"/><path d="M231.68,201.93l-44.42,25.89c-.14.08-.13.2-.09.29s.12.18.28.12l57.85-19.32-13.62-6.98Z" fill="#e95420"/></svg>