<?xml version="1.0" encoding="UTF-8"?><svg id="Illustrations" xmlns="http://www.w3.org/2000/svg" viewBox="0 0 300 300"><polygon points="92.41 146.62 87.22 176.33 116.97 176.23 117.08 175.89 118.1 176.23 121.37 176.22 92.41 146.62" fill="#e95420"/><path d="M141.19,176.15l-11.11-36.96c-.06-.21-.09-.43-.07-.65l1.17-13.88-36.72,10.15-1.32,7.56,33.1,33.83,14.94-.05Z" fill="#e95420"/><polygon points="90.17 120.42 80.82 100.41 78.6 129.18 88.4 149.2 91.17 133.34 90.17 120.42" fill="#e95420"/><polygon points="223.84 212.03 261.02 213.28 261.02 212.97 220.8 203.49 223.84 212.03" fill="#e95420"/><polygon points="72.6 177.83 83.64 176.51 87.38 155.07 87.38 155.06 79.38 138.74 74.87 144.28 63.66 171.47 72.6 177.83" fill="#e95420"/><polygon points="104.01 179.78 111.27 193.25 115.8 179.74 104.01 179.78" fill="#e95420"/><polygon points="109.36 197.07 103.42 186.06 86.63 212.44 109.36 197.07" fill="#e95420"/><polygon points="217.13 211.81 220.08 211.91 216.45 201.7 198.6 164.42 191.14 183.94 217.13 211.81" fill="#e95420"/><path d="M53.28,207.66l27.61-27.3-8.54,1.03c-.44.05-.87-.06-1.22-.31l-8.83-6.28-12.58,30.51,3.57,2.36Z" fill="#e95420"/><polygon points="145.18 177.29 161.21 209.05 181.56 130.79 134.73 124.29 133.53 138.51 145.18 177.29" fill="#e95420"/><polygon points="187.6 183.39 196.52 160.07 184.23 134.4 165.19 207.66 187.6 183.39" fill="#e95420"/><polygon points="158.89 212.23 153.32 201.18 146.36 212.23 158.89 212.23" fill="#e95420"/></svg>