<?xml version="1.0" encoding="UTF-8"?><svg id="Illustrations" xmlns="http://www.w3.org/2000/svg" viewBox="0 0 300 300"><polygon points="146.35 134.97 108.82 170.62 119.4 202.74 146.35 134.97" fill="#e95420"/><polygon points="140.73 190.47 147.27 142.12 123.06 203.01 140.73 190.47" fill="#e95420"/><polygon points="170.59 187.16 151.7 135.47 144.39 189.52 170.59 187.16" fill="#e95420"/><path d="M80.21,201.4l31.44-11.03-6.08-18.46-54.03,1.88c-.29.03-.64-.06-.94-.23l-10.57-6.13-.82,2.47,12.92,21.14,28.09,10.36Z" fill="#e95420"/><polygon points="205.35 128.27 205.24 133.21 205.83 142.2 214.81 131.62 205.35 128.27" fill="#e95420"/><polygon points="142.27 193.67 124.74 206.11 157.02 206.11 142.27 193.67" fill="#e95420"/><polygon points="212.28 206.11 197.1 192.95 184.19 206.11 212.28 206.11" fill="#e95420"/><path d="M180.71,204.66l31.26-31.86-9.26-25.58c-.06-.15-.09-.32-.1-.48l-.78-11.92-48.32-4.6,27.2,74.44Z" fill="#e95420"/><polygon points="218.34 132.87 206.35 146.99 215.04 171 249.89 158.22 249.8 144.02 218.34 132.87" fill="#e95420"/><polygon points="253.31 145.26 253.37 154.11 260.01 147.64 253.31 145.26" fill="#e95420"/></svg>