<?xml version="1.0" encoding="UTF-8"?><svg id="Illustrations" xmlns="http://www.w3.org/2000/svg" viewBox="0 0 300 300"><polygon points="211.74 148.84 231.92 143.19 223.85 102.19 211.74 148.84" fill="#e95420"/><polygon points="167.41 197.99 119.97 150.55 121.54 196.43 167.41 197.99" fill="#e95420"/><polygon points="169.12 106.22 215.78 94.12 174.77 86.04 169.12 106.22" fill="#e95420"/><path d="M76.53,177.89l12.21,10.04,2.46-4.49c.06-.11.14-.23.23-.33l8.03-8.89-30.09-11.26,7.16,14.94Z" fill="#e95420"/><polygon points="105.02 168.46 116.68 156.8 116.5 151.48 107.55 151.87 105.02 168.46" fill="#e95420"/><polygon points="184 129.07 166.17 111.24 125.49 142.66 184 129.07" fill="#e95420"/><polygon points="91.18 190.77 68.08 232.96 91.9 215.73 91.18 190.77" fill="#e95420"/><polygon points="116.85 161.58 103.74 174.69 94.51 184.92 95.33 213.25 118.05 196.83 116.85 161.58" fill="#e95420"/><polygon points="102.23 226.06 85.01 249.89 127.2 226.79 102.23 226.06" fill="#e95420"/><polygon points="161.17 201.28 149.5 212.95 166.09 210.42 166.49 201.46 161.17 201.28" fill="#e95420"/><path d="M140.07,241.43l14.94,7.16-11.26-30.09-8.89,8.02c-.11.1-.22.17-.33.24l-4.49,2.46,10.04,12.21Z" fill="#e95420"/><polygon points="206.73 151.79 188.48 133.55 175.22 192.58 206.73 151.79" fill="#e95420"/><polygon points="169.6 109.72 208.25 148.37 221.8 96.17 169.6 109.72" fill="#e95420"/><polygon points="185.15 132.39 121.54 147.17 170.78 196.4 185.15 132.39" fill="#e95420"/><polygon points="121.14 199.92 104.71 222.63 133.04 223.46 143.29 214.21 156.38 201.12 121.14 199.92" fill="#e95420"/><polygon points="67.86 158.65 83.01 164.32 71.3 136.12 67.86 158.65" fill="#e95420"/><polygon points="153.64 234.95 159.31 250.11 181.85 246.66 153.64 234.95" fill="#e95420"/><circle cx="102.1" cy="95.08" r="3.46" fill="#e95420"/><circle cx="198.95" cy="188.53" r="3.46" fill="#e95420"/><circle cx="188.33" cy="70.11" r="3.46" fill="#e95420"/><circle cx="131.26" cy="118.9" r="3.46" fill="#e95420"/><circle cx="119.2" cy="103.19" r="1.94" fill="#e95420"/><circle cx="194.49" cy="205.5" r="1.94" fill="#e95420"/><circle cx="91.9" cy="125.52" r="1.37" fill="#e95420"/><circle cx="204.72" cy="76.83" r="1.37" fill="#e95420"/><circle cx="110.39" cy="76.83" r="6.92" fill="#e95420"/></svg>