<?xml version="1.0" encoding="UTF-8"?><svg id="Illustrations" xmlns="http://www.w3.org/2000/svg" viewBox="0 0 300 300"><polygon points="111.99 189.26 115.16 228.75 119.74 234.36 129.33 181.73 111.99 189.26" fill="#e95420"/><polygon points="205.41 214.29 206.46 228.97 208.97 234 218.01 209.67 205.41 214.29" fill="#e95420"/><polygon points="76.71 75.53 61.69 75.53 58.7 91.84 98.46 104.1 76.71 75.53" fill="#e95420"/><polygon points="95.38 94.38 101.87 81.5 85.21 81.5 95.38 94.38" fill="#e95420"/><polygon points="182.07 188.92 202.87 209.85 218.51 172.04 182.07 188.92" fill="#e95420"/><polygon points="107.49 236.73 117 236.73 113.16 232.02 107.49 236.73" fill="#e95420"/><polygon points="55.4 89.86 57.24 79.31 50.09 78.22 49.5 85.28 55.4 89.86" fill="#e95420"/><polygon points="42.58 76.58 42.58 79.9 46.09 82.62 46.67 75.67 42.58 76.58" fill="#e95420"/><polygon points="199.3 236.73 206.29 236.73 204.12 232.4 199.3 236.73" fill="#e95420"/><polygon points="217.95 205.84 211.45 198.6 206.76 209.94 217.95 205.84" fill="#e95420"/><polygon points="236.91 153.91 259.51 140.93 233.9 148.13 236.91 153.91" fill="#e95420"/><polygon points="110.31 124.38 106.78 124.38 111.68 185.45 130.11 177.44 135.27 149.15 110.31 124.38" fill="#e95420"/><polygon points="233.16 154.48 226.48 141.12 215.12 142.97 224.59 153.81 233.16 154.48" fill="#e95420"/><polygon points="222.49 138.1 199.49 127.61 198.03 141.91 211.42 139.9 222.49 138.1" fill="#e95420"/><polygon points="211.42 140.4 211.42 140.4 211.42 140.4 211.42 140.4" fill="#e95420"/><polygon points="194.5 140.86 195.93 126.78 179.61 127.24 194.5 140.86" fill="#e95420"/><polygon points="103.01 122.72 101.75 108.9 70.84 99.37 61.74 127.18 107.83 182.73 103.01 122.72" fill="#e95420"/><path d="M174.4,127.39l-54.36,1.54,18.46,18.32c.42.42.61,1.02.51,1.61h0s-3.83,21.04-3.83,21.04l44.15,16.3,39.41-18.25-44.33-40.56Z" fill="#e95420"/></svg>