<?xml version="1.0" encoding="UTF-8"?><svg id="Illustrations" xmlns="http://www.w3.org/2000/svg" viewBox="0 0 300 300"><polygon points="47.71 152.64 43.76 146.3 41.81 149.64 44.41 153.47 47.71 152.64" fill="#e95520"/><polygon points="133.78 175.37 111.99 172.74 111.21 199.79 133.78 175.37" fill="#e95520"/><path d="M75.5,145.65l.92-9.51-6.72-5.16c-.54-.41-.79-1.11-.64-1.77l1.7-7.56-13.89,2.15-11.1,19.08,5.52,8.87,24.23-6.09Z" fill="#e95520"/><path d="M81.95,124.02l-7.64-2.28-1.6,7.14,6.61,5.07c.48.37.74.95.68,1.56l-1.19,12.29,5.32-15.21-2.18-8.57Z" fill="#e95520"/><path d="M107.6,203.7l2.04-71.21-8.73-12.95-25.31-2.11-.33.94,8.63,2.57c.59.18,1.05.65,1.2,1.25l2.55,10.04c.08.33.07.68-.04,1.01l-10.2,29.19-.03.36,20.97,50.93,9.27-10.03Z" fill="#e95520"/><polygon points="162.85 188.46 123.29 201.3 111.88 220.58 160.37 220.58 190.37 209.17 162.85 188.46" fill="#e95520"/><polygon points="214.13 228.05 197.81 236.3 220.57 236.3 222.75 234.95 214.13 228.05" fill="#e95520"/><polygon points="245.37 102.32 238.33 69.43 236.77 69.43 227.86 101.83 245.37 102.32" fill="#e95520"/><polygon points="220.3 201.04 212.21 195.94 168.3 188.18 195.43 208.59 195.42 208.6 224.72 232.05 228.05 218.07 220.3 201.04" fill="#e95520"/><polygon points="219.59 174.23 234.24 188.77 252.09 165.94 243.9 147.96 219.59 174.23" fill="#e95520"/><polygon points="228.34 105.34 252.98 159.45 253.8 150.61 246.07 105.84 228.34 105.34" fill="#e95520"/><path d="M197.15,189.72l8.35-23.06-49.83-4.26-16.95,12.83-12.73,21.51,38.68-12.55c.28-.09.57-.11.85-.06l31.62,5.59Z" fill="#e95520"/><polygon points="212.89 192.5 230.65 190.14 208.63 168.29 200.64 190.34 212.89 192.5" fill="#e95520"/><polygon points="82.25 236.3 98.5 236.3 127.48 187.35 82.25 236.3" fill="#e95520"/></svg>