<?xml version="1.0" encoding="UTF-8"?><svg id="Illustrations" xmlns="http://www.w3.org/2000/svg" viewBox="0 0 300 300"><path d="M80.61,202.95l40.48-16.67-13.55-10.03-25.84,20.19c-.69.54-1.09,1.35-1.09,2.23v4.28Z" fill="#e95520"/><polygon points="113.41 193.23 101.25 198.24 102.88 213.83 113.41 193.23" fill="#e95520"/><path d="M148.46,155.5l28.43,60.99,8.04-10.79,10.31-66.53-12.08,26.12c-.36.78-1.3,1.2-2.13.93l-32.56-10.72Z" fill="#e95520"/><path d="M144.86,156.07c-.06-.14-.11-.28-.14-.43l-3.58-19.81-1.37,17.16c-.01.17-.05.34-.12.5l-9.41,23.79,15.68,3.28,9.11-2.66-10.18-21.83Z" fill="#e95520"/><path d="M90.26,217.5c-.19.14-.14.34-.12.39.02.06.1.24.34.24h9.34l-.76-7.24-8.79,6.61Z" fill="#e95520"/><path d="M81.4,206.09c-.22.09-.23.29-.22.35,0,.06.03.26.26.32l9,2.48,1.19-7.18-10.23,4.04Z" fill="#e95520"/><polygon points="169.72 125.85 144.22 133.15 147.53 151.51 180.63 162.41 196.25 128.63 169.72 125.85" fill="#e95520"/><polygon points="75.1 137.79 76.94 129.1 66.49 119.48 61.26 123.53 66.46 136.35 75.1 137.79" fill="#e95520"/><path d="M99.87,160.18v6.04l23.97,17.73,12.46-31.5,1.54-19.26-44.22-4.81-3.61,1.45-2.53,6.94,12.18,22.58c.14.26.21.54.21.83Z" fill="#e95520"/><polygon points="80.54 170.42 86.6 160.19 75.38 141.39 65.4 139.72 51.59 145.27 63.73 173.97 80.54 170.42" fill="#e95520"/><path d="M44.91,164.32l7.01-9.29-2.88-6.8-11.88,20.61,8.65,10.89-1.25-14.21c-.04-.43.08-.86.35-1.21Z" fill="#e95520"/><polygon points="53.49 158.76 48.11 165.89 49.4 180.61 57.3 180.61 60.69 175.77 53.49 158.76" fill="#e95520"/><path d="M88.41,164l7.96,1.1v-4.47l-12.35-22.88c-.24-.44-.28-.96-.1-1.43l1.72-4.72-6.17,2.48-1.15,5.42,11.81,19.8c.33.55.33,1.24,0,1.79l-1.73,2.92Z" fill="#e95520"/><polygon points="259.47 90.34 256.33 124.7 262.93 122.77 261.9 90.88 259.47 90.34" fill="#e95520"/><path d="M159.38,218.13h14.41l-5.42-11.62-9.29,10.98c-.15.17-.09.35-.06.41.03.07.13.23.35.23Z" fill="#e95520"/><path d="M221.66,138.07l-21.4-8.49-1.59,10.26,25.72,7.12,35.14-16.37,1.85-3.71-38.58,11.25c-.38.11-.77.09-1.13-.05Z" fill="#e95520"/></svg>