<?xml version="1.0" encoding="UTF-8"?><svg id="Illustrations" xmlns="http://www.w3.org/2000/svg" viewBox="0 0 300 300"><polygon points="209.84 246.36 219.14 205.81 178.13 199.57 204.99 246.36 209.84 246.36" fill="#e95420"/><polygon points="123.91 208.8 135.81 143.76 135.81 86.64 118.42 70.39 95.99 119.11 123.91 208.8" fill="#e95420"/><polygon points="105.72 246.36 112.64 221.5 85.44 229.79 91.61 246.36 105.72 246.36" fill="#e95420"/><polygon points="93.99 124.44 69.31 209.55 79.96 227.8 122.16 214.95 93.99 124.44" fill="#e95420"/><polygon points="200.96 246.36 196.64 238.84 189.49 246.36 200.96 246.36" fill="#e95420"/><polygon points="224.97 203.16 236.14 155.48 219.92 133.81 164.81 124.27 171.27 194.99 224.97 203.16" fill="#e95420"/><polygon points="122.49 246.36 122.76 240.64 111.65 238.12 109.35 246.36 122.49 246.36" fill="#e95420"/><path d="M167.73,194.64l-6.46-70.73h-21.96v20.02c0,.11,0,.21-.03.32l-9.22,50.4h37.67Z" fill="#e95420"/><polygon points="139.31 91.44 139.31 120.4 159.51 120.4 139.31 91.44" fill="#e95420"/><polygon points="93.36 116.46 115.68 67.96 98.29 53.74 76.22 65.74 64.98 90.84 85.34 117.17 93.36 116.46" fill="#e95420"/><polygon points="78.8 122.26 82.21 118.84 68.1 100.6 64.86 111.12 72.7 123.85 78.8 122.26" fill="#e95420"/></svg>