<?xml version="1.0" encoding="UTF-8"?><svg id="Illustrations" xmlns="http://www.w3.org/2000/svg" viewBox="0 0 300 300"><path d="M41.21,149.86l36.54,20.96,8.94-11.37-4.97-32.92-22.26,24.95c-.38.43-.97.65-1.54.57l-16.71-2.19Z" fill="#e95420"/><polygon points="68.67 121.58 39.85 124.77 34.83 145.49 57.46 148.46 79.4 123.87 68.67 121.58" fill="#e95420"/><polygon points="182.24 194.34 207.75 210.78 234.17 168.47 239.48 138.87 204.85 116.02 179.04 118.03 181.44 185.55 182.24 194.34" fill="#e95420"/><polygon points="135.65 155.32 172.49 118.53 99.38 124.21 135.65 155.32" fill="#e95420"/><polygon points="99.34 175.73 100.24 193.37 105.75 199.88 105.77 199.87 106.04 200.21 106.07 200.25 118.04 216.21 122.77 209.67 127.7 189.21 133.82 158.37 96.98 126.76 99.34 175.73" fill="#e95420"/><polygon points="111.49 108.13 97.3 117.29 96.97 120.88 111.49 119.76 111.49 108.13" fill="#e95420"/><path d="M95.75,173.78l-1.43-29.6-3.99,16.05c-.03.33-.2.71-.49,1l-8.14,10.54,14.05,2.01Z" fill="#e95420"/><polygon points="93.45 120.03 84.72 123.83 88.12 149.14 93.45 120.03" fill="#e95420"/><path d="M101.1,217.41h13.46l-9.48-12.64-4.84,11.34c-.12.29-.1.61.08.88.18.27.46.42.78.42Z" fill="#e95420"/><polygon points="177.89 184.04 175.62 120.35 137.63 158.28 143.29 186.78 177.89 184.04" fill="#e95420"/><polygon points="131.57 187.66 139.77 187.05 135.74 166.7 131.57 187.66" fill="#e95420"/><path d="M246.71,139.8h-3.84l-1.15,6.39,21.83,27.29.8-.52c.43-.28.58-.86.32-1.31l-17.96-31.85Z" fill="#e95420"/><path d="M178.47,217.41h21.41l5.36-4.08-18.14-11.69-9.41,14.32c-.19.29-.21.65-.04.96.17.31.47.49.82.49Z" fill="#e95420"/></svg>