<?xml version="1.0" encoding="UTF-8"?><svg id="Illustrations" xmlns="http://www.w3.org/2000/svg" viewBox="0 0 300 300"><path d="M122.85,89.15l18.53-8.19v-6.44h-9.84l-8.69,3.76v10.86ZM133.7,77.05c1.27,0,2.3,1.03,2.3,2.3s-1.03,2.3-2.3,2.3-2.3-1.03-2.3-2.3,1.03-2.3,2.3-2.3Z" fill="#e95420"/><polygon points="139.25 184.05 113.04 150.41 110.06 188.16 139.25 184.05" fill="#e95420"/><polygon points="211.53 151.99 213.73 136.59 173.76 112.54 161.99 130.23 211.53 151.99" fill="#e95420"/><polygon points="103.04 232.69 109.6 149.57 84.64 168.76 89.66 232.69 103.04 232.69" fill="#e95420"/><path d="M130.48,71.17c.22-.1.46-.14.7-.14h11.95c.07,0,.13.01.18.02.05-.01.11-.02.18-.02h11.95c.24,0,.47.05.7.14l7,3.03-4.1-9.92-7.94-2.71h-15.58l-7.94,2.71-4.1,9.92,7-3.03Z" fill="#e95420"/><polygon points="123.51 92.69 130.99 107.16 139.8 85.49 123.51 92.69" fill="#e95420"/><path d="M119.35,91.84v-7.64l-4.2,10.17v15.28l12.94,19.44h30.02l13.37-19.46v-15.26l-4.2-10.17v7.64c0,.28-.07.56-.2.8l-10.08,19.5c-.12.22-.28.42-.48.57l.03.07-.48.19-11.95,4.51c-.2.07-.41.11-.62.11h-.36c-.21,0-.42-.04-.62-.11l-12.4-4.68.02-.07c-.22-.16-.39-.36-.52-.6l-10.08-19.5c-.13-.25-.2-.53-.2-.8Z" fill="#e95420"/><polygon points="127.85 132.59 114 145.95 143.62 183.97 143.64 183.96 143.9 184.32 163.38 212.35 179.33 150.94 158.37 132.59 127.85 132.59" fill="#e95420"/><polygon points="200.99 214.44 200.99 229.42 207.65 244.34 219.96 244.34 234.11 198.16 224.86 181.29 200.99 214.44" fill="#e95420"/><polygon points="112.58 91.41 123.99 63.8 108.72 57.17 97.75 71.05 100.13 83.35 112.58 91.41" fill="#e95420"/><polygon points="228.49 180.63 216.3 143.36 214.59 155.28 228.49 180.63" fill="#e95420"/><polygon points="145.72 238.17 157.01 236.91 162.22 216.82 155.89 207.7 109.25 198.49 108.21 211.67 145.72 238.17" fill="#e95420"/><polygon points="141.66 187.24 109.78 191.73 109.53 194.98 153.01 203.57 141.66 187.24" fill="#e95420"/><polygon points="87.59 162.07 109.97 144.87 111.83 121.31 87.59 162.07" fill="#e95420"/><path d="M211.81,176.33l-27.91,68h19.91l-6.18-13.83c-.1-.23-.15-.47-.15-.71v-15.91c0-.37.11-.72.33-1.02l25.18-34.96-9.17-16.73-1.89,14.71c-.02.16-.06.31-.12.45Z" fill="#e95420"/><polygon points="148.79 99.64 143.31 86.15 137.83 99.64 148.79 99.64" fill="#e95420"/><polygon points="124.88 130.59 115.69 116.79 113.76 141.32 124.88 130.59" fill="#e95420"/><polygon points="163.12 92.68 146.76 85.33 155.63 107.16 163.12 92.68" fill="#e95420"/><polygon points="142 242.1 132.75 257.72 149.24 257.72 171.36 251.86 177.7 246.74 158.21 240.3 142 242.1" fill="#e95420"/><polygon points="182.27 153.52 160.5 237.37 180.29 243.91 208.11 176.15 182.27 153.52" fill="#e95420"/><polygon points="168.73 137.01 208.88 172.18 211.01 155.58 168.73 137.01" fill="#e95420"/><polygon points="186.49 83.35 188.88 71.05 177.91 57.17 162.63 63.8 174.04 91.41 186.49 83.35" fill="#e95420"/><polygon points="150.22 103.14 136.4 103.14 133.48 110.34 143.31 114.05 153.15 110.34 150.22 103.14" fill="#e95420"/><polygon points="84.52 236.19 79.95 257.72 89.28 257.72 101.64 236.19 84.52 236.19" fill="#e95420"/><path d="M145.24,74.53v6.29l18.53,8.32v-10.84l-8.69-3.76h-9.84ZM153.24,81.66c-1.27,0-2.3-1.03-2.3-2.3s1.03-2.3,2.3-2.3,2.3,1.03,2.3,2.3-1.03,2.3-2.3,2.3Z" fill="#e95420"/></svg>