<?xml version="1.0" encoding="UTF-8"?><svg id="Illustrations" xmlns="http://www.w3.org/2000/svg" viewBox="0 0 300 300"><polygon points="154.96 265.51 162.42 213.61 146.42 213.61 154.96 265.51" fill="#e95420"/><polygon points="146.11 145.92 146.11 198.65 160.72 145.92 146.11 145.92" fill="#e95420"/><polygon points="162.7 210.03 162.7 152.14 146.66 210.03 162.7 210.03" fill="#e95420"/><polygon points="120.38 212.91 113.36 263.37 135.05 212.91 120.38 212.91" fill="#e95420"/><polygon points="120.62 209.98 136.33 209.98 120.62 156.42 120.62 209.98" fill="#e95420"/><polygon points="111.15 190.63 111.15 154.16 96.09 190.63 111.15 190.63" fill="#e95420"/><polygon points="166.38 125.35 153.91 76.76 141.45 125.35 166.38 125.35" fill="#e95420"/><polygon points="95.24 145.92 95.24 182.39 110.3 145.92 95.24 145.92" fill="#e95420"/><polygon points="95.37 194.03 79.11 220.23 109.31 194.03 95.37 194.03" fill="#e95420"/><polygon points="136.52 198.14 136.52 145.92 121.2 145.92 136.52 198.14" fill="#e95420"/><polygon points="196.23 263.37 189.21 212.91 174.54 212.91 196.23 263.37" fill="#e95420"/><polygon points="188.97 156.42 173.26 209.98 188.97 209.98 188.97 156.42" fill="#e95420"/><polygon points="198.44 154.16 198.44 190.63 213.5 190.63 198.44 154.16" fill="#e95420"/><polygon points="214.35 182.39 214.35 145.92 199.29 145.92 214.35 182.39" fill="#e95420"/><polygon points="200.28 194.03 230.48 220.23 214.22 194.03 200.28 194.03" fill="#e95420"/><polygon points="173.07 145.92 173.07 198.14 188.39 145.92 173.07 145.92" fill="#e95420"/><polygon points="94.24 98.78 76.33 125.6 134.46 125.6 94.24 98.78" fill="#e95420"/><polygon points="84.96 141.81 130.3 128.91 77.11 128.91 84.96 141.81" fill="#e95420"/><polygon points="122.94 78.62 96.67 96.4 138.1 123.25 151.07 73.52 122.94 78.62" fill="#e95420"/><polygon points="232.07 125.6 214.16 98.78 173.93 125.6 232.07 125.6" fill="#e95420"/><polygon points="178.14 128.91 223.44 141.81 231.28 128.91 178.14 128.91" fill="#e95420"/><polygon points="211.21 96.61 184.75 78.15 156.62 73.06 169.77 123.47 211.21 96.61" fill="#e95420"/><polygon points="154.2 140.68 163.51 128.91 144.89 128.91 154.2 140.68" fill="#e95420"/><polygon points="97.85 142.18 150.23 142.18 140.17 129.45 97.85 142.18" fill="#e95420"/><polygon points="210.55 142.18 168.22 129.45 158.16 142.18 210.55 142.18" fill="#e95420"/><circle cx="205.89" cy="79.31" r="3.46" fill="#e95420"/><circle cx="235.05" cy="103.14" r="3.46" fill="#e95420"/><circle cx="222.99" cy="87.43" r="1.94" fill="#e95420"/><circle cx="79.11" cy="74.21" r="3.46" fill="#e95420"/><circle cx="96.21" cy="82.32" r="1.94" fill="#e95420"/><circle cx="172.24" cy="61.58" r="1.94" fill="#e95420"/><circle cx="214.17" cy="61.07" r="6.92" fill="#e95420"/><circle cx="99.98" cy="54.14" r="6.92" fill="#e95420"/></svg>