<?xml version="1.0" encoding="UTF-8"?><svg id="Illustrations" xmlns="http://www.w3.org/2000/svg" viewBox="0 0 300 300"><polygon points="113.52 166.66 143.51 146.29 107.03 129.97 90.47 145.93 113.52 166.66" fill="#e95420"/><polygon points="229.29 187.17 214.68 198.66 225.73 225.38 235.57 225.38 229.29 187.17" fill="#e95420"/><path d="M148.68,145.25l.09-.02,1.04,10.31,30.89-24.23-32.15-15.29-27.29,16.49,26.54,11.87c.39.18.7.49.88.87Z" fill="#e95420"/><path d="M90.55,126.76l-7.76,10.5,5.24,6.16,16.33-15.74-14.95-20.72,1.52,19.09h-.07c-.05.25-.15.49-.3.69Z" fill="#e95420"/><polygon points="115.03 169.97 127.95 225.38 138.34 225.38 149.4 189.72 145.32 149.39 115.03 169.97" fill="#e95420"/><polygon points="66.15 119.68 87.22 123.58 85.79 105.57 66.15 119.68" fill="#e95420"/><polygon points="74.23 142.96 86.08 126.93 62.51 122.56 42.72 147.24 47.68 155.35 74.23 142.96" fill="#e95420"/><polygon points="106.71 55.41 98.64 62.21 114.7 57.65 117.18 52.79 106.71 55.41" fill="#e95420"/><polygon points="76.54 91.7 66.01 115.47 93.95 95.39 102.51 80.66 76.54 91.7" fill="#e95420"/><polygon points="97.94 78.8 104.92 75.84 104.92 64.67 97.94 66.49 97.94 78.8" fill="#e95420"/><polygon points="128.36 228.88 129.47 263.06 132.79 263.06 137.61 228.88 128.36 228.88" fill="#e95420"/><polygon points="152.75 188.13 207.51 187.42 192.89 136.4 184.01 133.23 149.91 159.98 152.75 188.13" fill="#e95420"/><polygon points="226.51 263.06 235.37 228.88 226.17 228.88 223.24 263.06 226.51 263.06" fill="#e95420"/><polygon points="67.09 149.85 81.74 153.71 75.29 146.02 67.09 149.85" fill="#e95420"/><polygon points="244.88 167.75 244.27 151.34 236.58 145.66 237.5 163.34 244.88 167.75" fill="#e95420"/><polygon points="213.48 195.15 228.77 183.12 234.34 169.84 232.77 139.72 196.7 136.99 211.5 188.64 213.48 195.15" fill="#e95420"/></svg>