<?xml version="1.0" encoding="UTF-8"?><svg id="Illustrations" xmlns="http://www.w3.org/2000/svg" viewBox="0 0 300 300"><path d="M123.91,252.45v5.25c1.21.81,3.45,2.3,4.89,3.27v-8.02l4.91-5.7-9.8,5.2Z" fill="#e95420"/><polygon points="77.38 196.07 79.1 190.73 76.15 186.44 73.53 196.03 77.38 196.07" fill="#e95420"/><polygon points="106.78 174.1 107.38 179.5 127.05 180.91 125.85 176.42 106.78 174.1" fill="#e95420"/><polygon points="96.19 166.9 97.02 161.7 79.07 161.17 79.78 166.57 96.19 166.9" fill="#e95420"/><polygon points="113.98 204.71 110.14 201.27 110.14 216.76 113.98 215.75 113.98 204.71" fill="#e95420"/><polygon points="76.83 161.5 69.35 170.76 73.46 172.3 77.71 167.21 76.83 161.5" fill="#e95420"/><polygon points="91.39 212.99 94.47 213.51 94.47 206.42 91.39 202.85 91.39 212.99" fill="#e95420"/><polygon points="111.46 219.15 119.72 226.16 120.95 222.69 115.47 218.06 111.46 219.15" fill="#e95420"/><polygon points="95.2 203.54 107.85 190.11 106.65 185.61 92.3 200.28 95.2 203.54" fill="#e95420"/><polygon points="80.62 188.66 104.92 179.88 104.34 174.56 77.9 184.36 80.62 188.66" fill="#e95420"/><polygon points="109.1 184.44 110.26 188.63 128.98 187.36 127.96 183.55 109.1 184.44" fill="#e95420"/><polygon points="111.67 199.03 114.95 202.18 131.22 194.39 129.86 189.96 111.67 199.03" fill="#e95420"/><polygon points="99.41 162.06 98.51 166.9 125.01 170.46 125.98 166.09 99.41 162.06" fill="#e95420"/><polygon points="222 196.07 220.28 190.73 223.23 186.44 225.85 196.03 222 196.07" fill="#e95420"/><polygon points="192.59 174.1 192 179.5 172.33 180.91 173.52 176.42 192.59 174.1" fill="#e95420"/><polygon points="203.19 166.9 202.36 161.7 220.31 161.17 219.6 166.57 203.19 166.9" fill="#e95420"/><polygon points="185.39 204.71 189.24 201.27 189.24 216.76 185.39 215.75 185.39 204.71" fill="#e95420"/><polygon points="222.54 161.5 230.03 170.76 225.92 172.3 221.67 167.21 222.54 161.5" fill="#e95420"/><polygon points="207.99 212.99 204.91 213.51 204.91 206.42 207.99 202.85 207.99 212.99" fill="#e95420"/><polygon points="187.91 219.15 179.66 226.16 178.43 222.69 183.91 218.06 187.91 219.15" fill="#e95420"/><polygon points="204.18 203.54 191.53 190.11 192.73 185.61 207.07 200.28 204.18 203.54" fill="#e95420"/><polygon points="218.75 188.66 194.46 179.88 195.04 174.56 221.48 184.36 218.75 188.66" fill="#e95420"/><polygon points="190.28 184.44 189.12 188.63 170.4 187.36 171.42 183.55 190.28 184.44" fill="#e95420"/><polygon points="187.71 199.03 184.43 202.18 168.16 194.39 169.52 189.96 187.71 199.03" fill="#e95420"/><polygon points="199.97 162.06 200.87 166.9 174.37 170.46 173.4 166.09 199.97 162.06" fill="#e95420"/><polygon points="157.82 219.44 162.71 215.61 162.71 211.83 136.8 211.83 136.8 215.61 141.43 219.44 157.82 219.44" fill="#e95420"/><polygon points="157.86 138.05 149.74 133.65 141.65 138.05 149.74 150.58 157.86 138.05" fill="#e95420"/><polygon points="133.63 148.05 147.23 151.45 139.51 139.72 133.63 148.05" fill="#e95420"/><polygon points="160 139.72 152.28 151.45 165.87 148.04 160 139.72" fill="#e95420"/><polygon points="136.8 219.29 136.8 227.26 140.85 230.38 158.66 230.38 162.71 227.26 162.71 219.29 158.76 222.36 140.75 222.36 136.8 219.29" fill="#e95420"/><polygon points="158.66 241.42 162.71 238.3 162.71 230.89 159.25 233.48 140.26 233.48 136.8 230.89 136.8 238.3 140.85 241.42 158.66 241.42" fill="#e95420"/><polygon points="153.62 261.9 158.57 254.34 158.57 244.5 140.95 244.5 140.95 254.34 145.84 261.9 153.62 261.9" fill="#e95420"/><polygon points="137.79 255.09 137.79 246.84 131.81 254.28 131.61 262.55 136.34 265.76 139.98 265.76 143.08 263.13 137.79 255.09" fill="#e95420"/><path d="M170.34,260.97c1.44-.97,3.68-2.46,4.89-3.27v-5.25l-9.8-5.2,4.91,5.7v8.02Z" fill="#e95420"/><polygon points="162.99 265.76 167.32 262.56 167.52 254.26 161.55 246.84 161.55 255.09 156.26 263.13 159.36 265.76 162.99 265.76" fill="#e95420"/><polygon points="156.83 201.18 154.41 204.02 145.1 204.02 142.68 201.18 133.2 201.18 131.09 203.06 131.09 206.9 133.25 208.8 166.26 208.8 168.42 206.9 168.42 203.05 166.32 201.18 156.83 201.18" fill="#e95420"/><polygon points="147.19 184.81 128.26 174.91 135.14 197.99 144.55 197.99 147.08 200.91 152.44 200.91 155.02 197.99 164.37 197.99 171.29 174.85 153.02 184.45 149.74 186.1 147.19 184.81" fill="#e95420"/><polygon points="149.76 183.04 171.53 171.62 167.08 150.57 149.74 154.81 149.62 154.78 132.42 150.58 127.95 171.65 149.76 183.04" fill="#e95420"/><polygon points="137.11 128.89 134.56 131.37 139.46 136.11 141.81 134.84 141.8 134.89 149.74 130.57 160.06 136.11 164.95 131.37 162.4 128.89 156.3 131.02 166.33 113.17 166.09 113 152.23 128.68 151.27 120.31 148.24 120.31 147.28 128.68 133.42 113 133.18 113.17 143.21 131.02 137.11 128.89" fill="#e95420"/><polygon points="102.26 135.42 93.27 136.3 88.74 142.71 92.2 149.65 105.93 159.28 126.66 163.11 128.67 154.86 114.19 148.64 102.26 135.42" fill="#e95420"/><polygon points="97 111.73 71.17 123.65 85.51 142.56 91.65 133.67 104.44 132.47 107.51 122.78 97 111.73" fill="#e95420"/><path d="M107.67,118.93l8.94-17.86-3.85-17.13c-.03-.12-.08-.14-.18-.14-.06,0-.14.02-.17.13l-3.6,13.4-9.42,12.89,8.29,8.71Z" fill="#e95420"/><path d="M94.63,90.29l16.58-17.51c.22-.23.11-.48.07-.56-.04-.07-.18-.3-.51-.24l-25.73,4.78c-2.15,2.7-11.55,15.45-14.52,19.49-.02,2.1-.05,16.12-.07,24.85l25.45-11.9-1.28-18.91Z" fill="#e95420"/><polygon points="193.59 159.28 207.32 149.65 210.78 142.71 206.25 136.3 197.26 135.42 185.16 148.76 170.65 154.97 172.67 163.22 193.59 159.28" fill="#e95420"/><polygon points="202.52 111.73 192.01 122.78 195.08 132.47 207.87 133.67 214.01 142.56 228.36 123.65 202.52 111.73" fill="#e95420"/><path d="M200.13,110.21l-9.5-13.06-3.52-13.23c-.03-.11-.13-.14-.18-.13-.06,0-.15.03-.17.14l-3.86,17.13,8.94,17.86,8.29-8.71Z" fill="#e95420"/><path d="M204.89,90.29l-1.28,18.91,25.45,11.9c-.02-8.73-.05-22.75-.07-24.85-3.05-4.14-12.38-16.8-14.52-19.49l-25.73-4.78c-.32-.06-.47.17-.51.24-.04.07-.15.32.07.56l16.58,17.51Z" fill="#e95420"/></svg>