<?xml version="1.0" encoding="UTF-8"?><svg id="Illustrations" xmlns="http://www.w3.org/2000/svg" viewBox="0 0 300 300"><polygon points="135.75 249.51 142.98 249.47 133.6 243.37 135.75 249.51" fill="none"/><polygon points="157.02 249.47 164.25 249.51 166.4 243.37 157.02 249.47" fill="none"/><path d="M115.58,174.83c.55-.52,1.34-1.24,2.11-1.95.74-.68,1.47-1.34,1.97-1.82l-17.77-15.01,13.69,18.77Z" fill="#e95420"/><path d="M180.25,171.07c.5.47,1.23,1.14,1.97,1.81.77.71,1.56,1.43,2.12,1.95l13.69-18.77-17.77,15.01Z" fill="#e95420"/><path d="M122.35,173.34c-5.17,5.12-8.74,8.65-11.21,11.07l31.24,5.84-20.03-16.92Z" fill="#e95420"/><polygon points="96.88 124.78 120.03 138.39 123.87 115.89 82.5 102.63 82.5 102.65 96.88 124.78" fill="#e95420"/><polygon points="94 144.81 148.36 190.72 148.36 144.44 143.2 144.44 127.18 117.31 122.42 144.84 119.52 144.81 94 144.81" fill="#e95420"/><path d="M157.44,190.26l31.24-5.84c-2.47-2.43-6.04-5.95-11.21-11.07l-20.03,16.92Z" fill="#e95420"/><path d="M220.39,50.67c-1.36,0-2.54.97-2.82,2.3l-10.19,49.27,10.67-3.42,4.25-48.14h-1.91Z" fill="#e95420"/><polygon points="180.58 144.81 177.62 144.74 172.96 117.44 157.02 144.44 151.86 144.44 151.86 190.39 205.82 144.81 180.58 144.81" fill="#e95420"/><path d="M92.83,102.27l-10.23-49.46c-.26-1.24-1.36-2.13-2.62-2.13h-2.08l4.26,48.18,10.67,3.42Z" fill="#e95420"/><polygon points="203.33 124.78 217.72 102.6 176.24 115.89 180.1 138.45 203.33 124.78" fill="#e95420"/><polygon points="125.04 234.68 175.18 234.68 191.23 187.5 149.91 195.23 109.01 187.58 125.04 234.68" fill="#e95420"/><polygon points="83.71 209.91 111.35 245.58 124.83 245.58 109.76 201.42 83.71 209.91" fill="#e95420"/><polygon points="72.53 201.2 65.02 222.55 105.96 244.35 72.53 201.2" fill="#e95420"/><polygon points="55.24 221.3 46.71 245.58 100.83 245.58 55.24 221.3" fill="#e95420"/><polygon points="190.24 201.42 175.17 245.58 188.65 245.58 216.29 209.91 190.24 201.42" fill="#e95420"/><polygon points="234.98 222.55 227.47 201.2 194.04 244.35 234.98 222.55" fill="#e95420"/><polygon points="253.29 245.58 244.76 221.3 199.17 245.58 253.29 245.58" fill="#e95420"/><path d="M132.23,255.81h35.75l6-17.64h-47.75l6,17.64ZM168.31,240.93l-3.34,9.58-11.28-.06,14.63-9.52ZM135.04,250.51l-3.34-9.58,14.63,9.52-11.28.06Z" fill="#e95420"/></svg>