<?xml version="1.0" encoding="UTF-8"?><svg id="Illustrations" xmlns="http://www.w3.org/2000/svg" viewBox="0 0 300 300"><path d="M93.84,96.15l.26.04s0-.01,0-.02l-.5-.06h0s.23.04.23.04h0Z" fill="none"/><polygon points="192.24 164.33 162.02 208.19 196.44 207.39 192.24 164.33" fill="#e95420"/><polygon points="132.08 158.35 122.58 206.28 159.28 208.16 132.08 158.35" fill="#e95420"/><path d="M101.44,236.13c.08.36.39.46.61.48.24,0,.52-.14.59-.49l3.63-18.27-8.79,1.19,3.97,17.1Z" fill="#e95420"/><path d="M205.42,207.09l2.63-3.12-7.49-9.42c-.31-.39-.44-.89-.36-1.38l5.13-30.91-10.44-1.24,5.05,46.25,5.48-.18Z" fill="#e95420"/><polygon points="112.42 169.08 97.83 215.45 109.41 213.88 116.58 203.7 112.42 169.08" fill="#e95420"/><polygon points="191.2 160.61 133.29 153.85 160.92 203.06 191.2 160.61" fill="#e95420"/><path d="M70.73,107.42l-4.29-46.9c-.04-.45-.32-.8-.75-.93-.43-.14-.86-.01-1.15.33l-24.26,28.61,20.15,23.68,10.3-4.79Z" fill="#e95420"/><polygon points="209.67 160.39 221.43 187.4 232.54 176.69 232.01 155.83 218.03 137.05 208.32 140.17 209.67 160.39" fill="#e95420"/><polygon points="57.48 158.6 78.42 181.58 102.71 188.27 107.53 172.97 40.07 93.69 41.94 122.31 57.48 158.6" fill="#e95420"/><polygon points="119.99 202.76 129.38 153.23 117.66 151.84 114.97 160.96 119.99 202.76" fill="#e95420"/><polygon points="108.77 169.02 111.52 160.29 114.42 150.46 72.25 110.57 62.78 114.98 108.77 169.02" fill="#e95420"/><path d="M236.87,234.62c.32.4.72.19.8.14.08-.05.45-.3.25-.77l-29.64-68.03-4.49,27.03,33.08,41.63Z" fill="#e95420"/><path d="M226.27,116.79l29.38,3.8c-.01-.22-.08-.42-.2-.6-.2-.3-.5-.5-.85-.56l-30.35-8.94-15.52,3.51,11.97,7.58,4.09-4.26c.38-.4.93-.59,1.48-.52Z" fill="#e95420"/><polygon points="218.22 124.16 206.77 116.91 207.97 134.85 218.22 124.16" fill="#e95420"/><polygon points="226.7 120.38 212.54 135.14 249.34 123.31 226.7 120.38" fill="#e95420"/></svg>