<?xml version="1.0" encoding="UTF-8"?><svg id="Illustrations" xmlns="http://www.w3.org/2000/svg" viewBox="0 0 300 300"><polygon points="96.36 116.24 68.62 113.03 64.89 122.37 62.94 146.82 68.55 140.92 72.23 165.06 96.9 116.1 96.36 116.24" fill="#e95420"/><polygon points="88.07 140.76 77.04 162.65 86.73 174.66 102.58 152.01 88.07 140.76" fill="#e95420"/><polygon points="188.86 167.39 250.64 203.34 267.29 204.33 196.86 167.43 189.72 167.54 188.86 167.39" fill="#e95420"/><polygon points="91.53 173.41 106.87 186.2 104.06 155.5 91.53 173.41" fill="#e95420"/><polygon points="107.13 153.7 109.51 179.77 117.99 186.16 143.81 187.95 158.46 162.3 107.13 153.7" fill="#e95420"/><path d="M99.2,81.91l-18.95-7.37-15.55,6.32-3.22,5.5,2,16.97,6.8,6.65,25.86,3,19.81-4.99-16.75-26.08ZM71.94,95.59c-1.79.23-3.43-1.03-3.66-2.82s1.03-3.43,2.82-3.66c1.79-.23,3.43,1.03,3.66,2.82s-1.03,3.43-2.82,3.66Z" fill="#e95420"/><polygon points="156.3 133 142.87 124.16 137.61 115.73 119.06 110.53 100.85 115.41 93.24 130.51 111.58 142.24 117.06 136.45 133.6 141.9 136.42 136.44 153.15 139.86 150.12 132.98 156.3 133" fill="#e95420"/><polygon points="31.18 97.61 60.15 102.56 58.6 89.45 31.18 97.61" fill="#e95420"/><polygon points="199.87 180.96 197.48 186.11 239.93 217.95 239.32 207.95 255.26 209.75 190.33 171.97 199.87 180.96" fill="#e95420"/><polygon points="151.48 181 162.17 182.67 160.02 166.05 151.48 181" fill="#e95420"/><polygon points="158.61 144.25 138.16 140.07 135.2 145.81 117.99 140.14 112.09 146.38 91.79 133.39 89.55 137.84 105.44 150.15 190.11 164.34 203.65 164.13 161.21 136.22 155.06 136.21 158.61 144.25" fill="#e95420"/><polygon points="179.05 165.75 162.87 163.04 164.62 176.55 194.61 184.65 195.98 181.71 179.05 165.75" fill="#e95420"/><polygon points="126.78 233.94 133.45 190.15 124.58 189.57 120.85 234.01 126.78 233.94" fill="#e95420"/><polygon points="102.58 233.93 108.94 229.65 106.33 227.1 102.58 233.93" fill="#e95420"/><polygon points="117.42 233.95 118.22 225.82 111.76 222.61 107.9 224.63 117.42 233.95" fill="#e95420"/><polygon points="130.88 228.62 130.06 234.01 140.56 233.85 140.56 233.85 130.88 228.62" fill="#e95420"/></svg>