<?xml version="1.0" encoding="UTF-8"?><svg id="Illustrations" xmlns="http://www.w3.org/2000/svg" viewBox="0 0 300 300"><polygon points="158.52 160.36 156.47 167.81 182.22 202.91 186.56 204.23 197.9 178.56 202.06 143.27 165.77 153.96 158.52 160.36" fill="#e95420"/><polygon points="65.27 197.22 65.63 210.37 59.32 210.7 98.38 235.35 65.27 197.22" fill="#e95420"/><polygon points="202.69 139.43 209.13 115.62 171.96 148.48 202.69 139.43" fill="#e95420"/><polygon points="152.9 217.43 175.58 210.19 178.8 204.16 155.97 173.05 152.9 217.43" fill="#e95420"/><polygon points="140.79 150.58 157.72 139.94 155.97 119.87 138.87 135.4 98.87 190.44 140.64 150.67 140.79 150.58" fill="#e95420"/><polygon points="110.18 234.03 106.72 239.95 120.23 239.95 161.53 239.95 141.64 228.42 110.55 233.11 110.18 234.03" fill="#e95420"/><polygon points="202.83 111.63 184.03 107.52 174.39 86.55 185.65 62.86 161.62 74 156.18 81.81 161.05 137.85 202.83 111.63" fill="#e95420"/><polygon points="112.09 229.33 148.96 223.77 152.82 167.87 155.42 158.43 205.78 113.91 143.13 153.24 112.09 229.33" fill="#e95420"/><polygon points="66.93 232.7 96.67 238.41 60.37 215.5 66.93 232.7" fill="#e95420"/><polygon points="186.48 104.48 204.68 108.45 180.59 91.67 186.48 104.48" fill="#e95420"/><polygon points="104.41 236.96 107.03 232.48 137.02 158.95 82.09 211.26 104.41 236.96" fill="#e95420"/><polygon points="208.97 107.17 212.57 64.94 189.76 62.37 178.54 85.97 208.97 107.17" fill="#e95420"/><polygon points="215.73 68.99 212.42 107.97 212.75 107.74 213.35 107.21 213.42 107.29 219.37 103.27 224.06 69.87 215.73 68.99" fill="#e95420"/><polygon points="245.9 85.35 227.43 71.06 223.27 100.64 245.9 85.35" fill="#e95420"/><polyline points="106.18 218.91 108.05 215.95 106.44 214.94 104.98 217.45" fill="#e95420"/><line x1="104.98" y1="217.45" x2="106.44" y2="214.94" fill="#e95420"/></svg>