<?xml version="1.0" encoding="UTF-8"?><svg id="Illustrations" xmlns="http://www.w3.org/2000/svg" viewBox="0 0 300 300"><polygon points="205.25 79.76 196.9 70.84 185.47 69.17 179.89 76.37 183.94 87.31 197.5 86.23 205.25 79.76" fill="#e95420"/><polygon points="89.97 140.65 85.39 191.23 116.27 196.13 89.97 140.65" fill="#e95420"/><path d="M217.6,106.59l.06-.09,36.06-12.19-27.27-15.32-22.41-6.05,6.29,7.14-11.61,9.7-15.48,1.46-52.86,12.08,43.29,24.07,43.94-20.79ZM238.5,89.91c1.75,0,3.16,1.42,3.16,3.16s-1.42,3.16-3.16,3.16-3.16-1.42-3.16-3.16,1.42-3.16,3.16-3.16Z" fill="#e95420"/><polygon points="133.91 249.01 195.94 249.01 192.62 241.83 159.91 235.54 136.9 241.11 133.91 249.01" fill="#e95420"/><path d="M137.9,237.26l21.34-5.16,8.46-12.5c-12.99,2.99-26.91,6.24-36.23,8.5l6.42,9.16Z" fill="#e95420"/><polygon points="40.38 161.7 35.68 163.86 61 239.59 65.06 222.93 40.38 161.7" fill="#e95420"/><polygon points="68.84 222.19 64.63 239.47 103.02 212.7 85.87 202.08 68.84 222.19" fill="#e95420"/><polygon points="92.16 137.08 119.92 195.66 163.67 161.76 171.57 130.23 125.27 104.49 125.21 104.5 92.16 137.08" fill="#e95420"/><path d="M181.3,175.56l-5.53-.61-1.78-30.49,8.58-11.21,12.97-1.61,5.12,9.56,4.26-14.61,9.17-14.45-38.99,18.45-8.32,33.2-47.03,36.44-34.67-5.5-.24,2.61,44.69,27.65c7.3-1.8,19.67-4.74,40.69-9.55l-.88-17.02-8.77-9.58,20.73-13.26Z" fill="#e95420"/><polygon points="203.76 164.36 196.51 160.89 199.3 146.08 193.58 135.4 184.45 136.54 177.56 145.55 179.09 171.79 199.45 174.05 208.47 175.05 208.47 188.21 214.36 183.14 214.36 169.43 203.76 164.36" fill="#e95420"/><polygon points="165.96 189.53 170.06 194.01 196.9 177.29 186.84 176.17 165.96 189.53" fill="#e95420"/><polygon points="219.95 109.42 208.13 128.04 202.83 146.2 200.44 158.9 205.19 161.16 220.63 126.38 255.52 104.33 254.53 97.73 219.95 109.42" fill="#e95420"/><polygon points="257.57 95.03 258.5 103.12 264.26 100.16 263.87 96.87 257.57 95.03" fill="#e95420"/></svg>