<?xml version="1.0" encoding="UTF-8"?>
<svg id="rr_black_aw" xmlns="http://www.w3.org/2000/svg" version="1.1" viewBox="0 0 1240 1240">
  <!-- Generator: Adobe Illustrator 30.0.0, SVG Export Plug-In . SVG Version: 2.1.1 Build 123)  -->
  <path d="M590.6,671.9c-2.4.6-3.7,3.2-2.7,5.5,7,15.9,17,30.2,29.4,42,1.6,1.5,4,1.5,5.6,0,12.4-11.8,22.4-26.1,29.4-42,1-2.3-.3-4.9-2.7-5.5-9.5-2.2-19.3-3.4-29.4-3.4s-20,1.2-29.4,3.4Z"/>
  <path d="M1219.9,628c0-2.7,0-5.3,0-8s0-5.3,0-8h-300c-.1-3.8-.3-7.6-.5-11.4l99.8-10.5c-.2-2.7-.3-5.3-.5-8l198.6-20.9c-.3-2.7-.5-5.3-.8-8l-198.4,20.9c-.2-2.7-.5-5.3-.8-8l-100.2,10.5c-.4-2.5-.7-4.9-1.2-7.3l99.2-21.1c-.4-2.6-.8-5.3-1.2-7.9l194.1-41.3c-.5-2.6-1.1-5.2-1.7-7.8l-193.8,41.2c-.5-2.6-.9-5.3-1.4-7.9l-100.1,21.3c-.6-2.4-1.2-4.8-1.9-7.2l98.3-31.9c-.6-2.6-1.2-5.2-1.9-7.8l186.7-60.7c-.8-2.5-1.6-5.1-2.5-7.6l-186.3,60.5c-.7-2.6-1.4-5.2-2.1-7.7l-99.7,32.4c-.9-2.3-1.7-4.6-2.7-6.9l97-43.2c-.8-2.6-1.7-5.1-2.5-7.6l176.6-78.6c-1.1-2.4-2.2-4.9-3.3-7.3l-176,78.4c-.9-2.5-1.8-5-2.8-7.5l-98.8,44c-1.1-2.2-2.2-4.4-3.4-6.6l95.1-54.9c-1-2.5-2.1-4.9-3.2-7.4l164.1-94.7c-1.3-2.3-2.7-4.6-4-6.9l-163.4,94.3c-1.1-2.4-2.3-4.9-3.4-7.3l-97.2,56.1c-1.3-2.1-2.7-4.2-4-6.2l92.5-67.2c-1.3-2.4-2.5-4.7-3.8-7.1l149.5-108.6c-1.6-2.2-3.1-4.3-4.7-6.5l-148.7,108.1c-1.3-2.3-2.7-4.6-4-7l-94.8,68.9c-1.5-1.9-3.1-3.9-4.7-5.8l89-80.1c-1.5-2.3-3-4.5-4.5-6.7l133.3-120c-1.8-2-3.6-4-5.4-5.9l-132.5,119.3c-1.5-2.2-3.1-4.4-4.6-6.6l-91.4,82.3c-1.7-1.8-3.5-3.5-5.2-5.2l84.2-93.5c-1.7-2.1-3.4-4.2-5.1-6.3l115.8-128.6c-2-1.8-3.9-3.6-5.9-5.4l-115,127.7c-1.7-2.1-3.4-4.1-5.2-6.2l-86.6,96.2c-1.9-1.6-3.8-3.1-5.8-4.7l78-107.4c-1.9-2-3.8-3.9-5.6-5.8l97.6-134.4c-2.1-1.6-4.3-3.2-6.5-4.7l-96.9,133.3c-1.9-1.9-3.8-3.8-5.8-5.7l-80.3,110.6c-2.1-1.4-4.1-2.7-6.2-4l70.2-121.6c-2-1.8-4.1-3.5-6.2-5.3l79.2-137.2c-2.3-1.4-4.6-2.7-6.9-4l-78.5,135.9c-2.1-1.7-4.2-3.4-6.3-5.1l-72.3,125.2c-2.8-1.5-5.6-2.9-8.4-4.3l60.6-136.2c-1.7-1.2-3.3-2.4-5-3.5l61-137c-2.4-1.1-4.9-2.2-7.3-3.3l-60.4,135.6c-1.7-1.1-3.4-2.3-5.1-3.4l-62.2,139.6c-3.5-1.4-7.1-2.8-10.7-4.1l48.9-150.4c-1.8-1-3.5-2-5.3-3l43.5-134c-2.5-.8-5.1-1.7-7.6-2.5l-43.1,132.5c-1.8-1-3.6-2-5.4-2.9l-50.1,154.1c-3.6-1.1-7.3-2-11-2.9l34.9-164c-1.9-.8-3.7-1.7-5.6-2.5l27.3-128.4c-2.6-.6-5.2-1.1-7.8-1.7l-27,126.8c-1.9-.8-3.7-1.6-5.6-2.4l-35.7,167.9c-3.7-.7-7.5-1.2-11.3-1.8l18.6-176.7c-1.9-.7-3.9-1.3-5.8-1.9l12.7-120.5c-2.6-.3-5.3-.6-8-.8l-12.5,118.9c-1.9-.6-3.9-1.2-5.8-1.8l-19,180.8c-3.8-.3-7.6-.5-11.4-.6v-188c-2-.4-4-.9-6-1.3V20c-1.3,0-2.7,0-4,0s-2.7,0-4,0v109.2c-2-.4-4-.8-6-1.2v192.1c-3.8.1-7.6.3-11.4.6l-20.8-197.5c-2-.2-4.1-.4-6.1-.6l-10.5-99.8c-2.7.3-5.3.5-8,.8l10.3,98.2c-2-.2-4.1-.4-6.1-.5l21.2,201.4c-3.8.5-7.5,1.1-11.3,1.8l-43.5-204.6c-1.3,0-2.6,0-4,0s-1.5,0-2.2,0l-18.7-87.8c-2.6.5-5.2,1.1-7.8,1.7l18.3,86.3c-2,0-4.1,0-6.1.2l44.3,208.5c-3.7.9-7.4,1.9-11,2.9l-67.9-209.1c-2,.2-4.1.5-6.1.7l-24.5-75.3c-2.5.8-5.1,1.6-7.6,2.5l24,73.8c-2,.3-4,.5-6,.8l69.1,212.8c-3.6,1.3-7.1,2.7-10.7,4.1l-93.8-210.6c-2,.4-4,.9-6,1.4l-27.9-62.6c-2.4,1.1-4.9,2.2-7.3,3.3l27.3,61.3c-2,.5-3.9,1-5.9,1.5l95.3,214c-3.4,1.7-6.8,3.4-10.2,5.2l-120.4-208.6c-1.9.7-3.8,1.4-5.8,2l-29.1-50.4c-2.3,1.3-4.6,2.7-6.9,4l28.4,49.2c-1.9.7-3.8,1.4-5.7,2.1l122.2,211.6c-3.8,2.4-7.5,4.8-11.2,7.4l-147.5-203.1c-1.2.6-2.4,1.2-3.6,1.8l-28.5-39.2c-2.2,1.6-4.3,3.1-6.5,4.7l27.7,38.1c-1.2.6-2.4,1.2-3.6,1.9l149.1,205.2c-4.1,3.1-8.1,6.4-12,9.7l-174.2-193.4c-1.1.7-2.3,1.5-3.4,2.2l-26.2-29.1c-2,1.8-4,3.6-5.9,5.4l25.4,28.2c-1.1.8-2.2,1.5-3.3,2.3l175.7,195.2c-3.7,3.5-7.4,7.2-10.9,10.9l-199.8-179.9c-1,.9-2.1,1.7-3.1,2.6l-22.8-20.6c-1.8,2-3.6,3.9-5.4,5.9l22,19.8c-1,.9-2,1.7-3.1,2.6l201.4,181.3c-3.3,3.9-6.6,7.9-9.7,12l-223.7-162.5c-.9,1-1.8,2-2.8,2.9l-18.7-13.6c-1.6,2.1-3.2,4.3-4.7,6.5l17.9,13c-.9,1-1.8,2-2.7,3l225.2,163.6c-2.9,4.2-5.7,8.5-8.4,12.9l-245.4-141.7c-.8,1.1-1.6,2.2-2.4,3.2l-14.2-8.2c-1.4,2.3-2.7,4.6-4,6.9l13.5,7.8c-.8,1.1-1.6,2.2-2.3,3.3l246.8,142.5c-2.5,4.5-4.8,9.1-7,13.7l-264.1-117.6c-.7,1.2-1.3,2.3-2,3.5l-9.8-4.4c-1.1,2.4-2.2,4.9-3.3,7.3l9.2,4.1c-.6,1.2-1.3,2.3-1.9,3.5l265.3,118.1c-2,4.7-3.8,9.5-5.5,14.4L57.8,428.9c-2,4.9-4,9.9-5.9,14.9l280.3,91.1c-1.5,4.9-2.8,9.9-4,14.9l-290.7-61.8c-1.4,5.1-2.7,10.3-4,15.5l291.3,61.9c-.9,5-1.7,10.1-2.4,15.2l-297.6-31.3c-.7,5.3-1.4,10.6-2,15.9l297.9,31.3c-.4,5.1-.7,10.2-.8,15.4H20.1c0,2.7,0,5.3,0,8s0,5.3,0,8h300c.1,3.8.3,7.6.5,11.4l-99.8,10.5c.2,2.7.3,5.3.5,8l-198.6,20.9c.3,2.7.5,5.3.8,8l198.4-20.9c.2,2.7.5,5.3.8,8l100.2-10.5c.4,2.5.7,4.9,1.2,7.3l-99.2,21.1c.4,2.6.8,5.3,1.2,7.9l-194.1,41.3c.5,2.6,1.1,5.2,1.7,7.8l193.8-41.2c.5,2.6.9,5.3,1.4,7.9l100.1-21.3c.6,2.4,1.2,4.8,1.9,7.2l-98.3,31.9c.6,2.6,1.2,5.2,1.9,7.8l-186.7,60.7c.8,2.5,1.6,5.1,2.5,7.6l186.3-60.5c.7,2.6,1.4,5.2,2.1,7.7l99.7-32.4c.9,2.3,1.7,4.6,2.7,6.9l-97,43.2c.8,2.6,1.7,5.1,2.5,7.6l-176.6,78.6c1.1,2.4,2.2,4.9,3.3,7.3l176-78.4c.9,2.5,1.8,5,2.8,7.5l98.8-44c1.1,2.2,2.2,4.4,3.4,6.6l-95.1,54.9c1,2.5,2.1,4.9,3.2,7.4l-164.1,94.7c1.3,2.3,2.7,4.6,4,6.9l163.4-94.3c1.1,2.4,2.3,4.9,3.4,7.3l97.2-56.1c1.3,2.1,2.7,4.2,4,6.2l-92.5,67.2c1.3,2.4,2.5,4.7,3.8,7.1l-149.5,108.6c1.6,2.2,3.1,4.3,4.7,6.5l148.7-108.1c1.3,2.3,2.7,4.6,4,7l94.8-68.9c1.5,1.9,3.1,3.9,4.7,5.8l-89,80.1c1.5,2.3,3,4.5,4.5,6.7l-133.3,120c1.8,2,3.6,4,5.4,5.9l132.5-119.3c1.5,2.2,3.1,4.4,4.6,6.6l91.4-82.3c1.7,1.8,3.5,3.5,5.2,5.2l-84.2,93.5c1.7,2.1,3.4,4.2,5.1,6.3l-115.8,128.6c2,1.8,3.9,3.6,5.9,5.4l115-127.7c1.7,2.1,3.4,4.1,5.2,6.2l86.6-96.2c1.9,1.6,3.8,3.1,5.8,4.7l-78,107.4c1.9,2,3.8,3.9,5.6,5.8l-97.6,134.4c2.1,1.6,4.3,3.2,6.5,4.7l96.9-133.3c1.9,1.9,3.8,3.8,5.8,5.7l80.3-110.6c2.1,1.4,4.1,2.7,6.2,4l-70.2,121.6c2,1.8,4.1,3.5,6.2,5.3l-79.2,137.2c2.3,1.4,4.6,2.7,6.9,4l78.5-135.9c2.1,1.7,4.2,3.4,6.3,5.1l72.3-125.2c2.8,1.5,5.6,2.9,8.4,4.3l-60.6,136.2c1.7,1.2,3.3,2.4,5,3.5l-61,137c2.4,1.1,4.9,2.2,7.3,3.3l60.4-135.6c1.7,1.1,3.4,2.3,5.1,3.4l62.2-139.6c3.5,1.4,7.1,2.8,10.7,4.1l-48.9,150.4c1.8,1,3.5,2,5.3,3l-43.5,134c2.5.8,5.1,1.7,7.6,2.5l43.1-132.5c1.8,1,3.6,2,5.4,2.9l50.1-154.1c3.6,1.1,7.3,2,11,2.9l-34.9,164c1.9.8,3.7,1.7,5.6,2.5l-27.3,128.4c2.6.6,5.2,1.1,7.8,1.7l27-126.8c1.9.8,3.7,1.6,5.6,2.4l35.7-167.9c3.7.7,7.5,1.2,11.3,1.8l-18.6,176.7c1.9.7,3.9,1.3,5.8,1.9l-12.7,120.5c2.6.3,5.3.6,8,.8l12.5-118.9c1.9.6,3.9,1.2,5.8,1.8l19-180.8c3.8.3,7.6.5,11.4.6v188c2,.4,4,.9,6,1.3v110.8c1.3,0,2.7,0,4,0s2.7,0,4,0v-109.2c2,.4,4,.8,6,1.2v-192.1c3.8-.1,7.6-.3,11.4-.6l20.8,197.5c2,.2,4.1.4,6.1.6l10.5,99.8c2.7-.3,5.3-.5,8-.8l-10.3-98.2c2,.2,4.1.4,6.1.5l-21.2-201.4c3.8-.5,7.5-1.1,11.3-1.8l43.5,204.6c1.3,0,2.6,0,4,0s1.5,0,2.2,0l18.7,87.8c2.6-.5,5.2-1.1,7.8-1.7l-18.3-86.3c2,0,4.1,0,6.1-.2l-44.3-208.5c3.7-.9,7.4-1.9,11-2.9l67.9,209.1c2-.2,4.1-.5,6.1-.7l24.5,75.3c2.5-.8,5.1-1.6,7.6-2.5l-24-73.8c2-.3,4-.5,6-.8l-69.1-212.8c3.6-1.3,7.1-2.7,10.7-4.1l93.8,210.6c2-.4,4-.9,6-1.4l27.9,62.6c2.4-1.1,4.9-2.2,7.3-3.3l-27.3-61.3c2-.5,3.9-1,5.9-1.5l-95.3-214c3.4-1.7,6.8-3.4,10.2-5.2l120.4,208.6c1.9-.7,3.8-1.4,5.8-2l29.1,50.4c2.3-1.3,4.6-2.7,6.9-4l-28.4-49.2c1.9-.7,3.8-1.4,5.7-2.1l-122.2-211.6c3.8-2.4,7.5-4.8,11.2-7.4l147.5,203.1c1.2-.6,2.4-1.2,3.6-1.8l28.5,39.2c2.2-1.6,4.3-3.1,6.5-4.7l-27.7-38.1c1.2-.6,2.4-1.2,3.6-1.9l-149.1-205.2c4.1-3.1,8.1-6.4,12-9.7l174.2,193.4c1.1-.7,2.3-1.5,3.4-2.2l26.2,29.1c2-1.8,4-3.6,5.9-5.4l-25.4-28.2c1.1-.8,2.2-1.5,3.3-2.3l-175.7-195.2c3.7-3.5,7.4-7.2,10.9-10.9l199.8,179.9c1-.9,2.1-1.7,3.1-2.6l22.8,20.6c1.8-2,3.6-3.9,5.4-5.9l-22-19.8c1-.9,2-1.7,3.1-2.6l-201.4-181.3c3.3-3.9,6.6-7.9,9.7-12l223.7,162.5c.9-1,1.8-2,2.8-2.9l18.7,13.6c1.6-2.1,3.2-4.3,4.7-6.5l-17.9-13c.9-1,1.8-2,2.7-3l-225.2-163.6c2.9-4.2,5.7-8.5,8.4-12.9l245.4,141.7c.8-1.1,1.6-2.2,2.4-3.2l14.2,8.2c1.4-2.3,2.7-4.6,4-6.9l-13.5-7.8c.8-1.1,1.6-2.2,2.3-3.3l-246.8-142.5c2.5-4.5,4.8-9.1,7-13.7l264.1,117.6c.7-1.2,1.3-2.3,2-3.5l9.8,4.4c1.1-2.4,2.2-4.9,3.3-7.3l-9.2-4.1c.6-1.2,1.3-2.3,1.9-3.5l-265.3-118.1c2-4.7,3.8-9.5,5.5-14.4l279.4,90.8c2-4.9,4-9.9,5.9-14.9l-280.3-91.1c1.5-4.9,2.8-9.9,4-14.9l290.7,61.8c1.4-5.1,2.7-10.3,4-15.5l-291.3-61.9c.9-5,1.7-10.1,2.4-15.2l297.6,31.3c.7-5.3,1.4-10.6,2-15.9l-297.9-31.3c.4-5.1.7-10.2.8-15.4h300ZM809.4,681c-16.2-66.3-66.3-119.3-130.8-139.6-9.7-3-19.8,3-21.8,12.9l-11.7,58.7c-.9,4.4,2,8.8,6.4,9.9,56.6,14,98.6,65.2,98.6,126.2-36.2,27.2-81.2,43.3-130,43.3s-93.8-16.1-130-43.3c0,0,0,0,0,0,0-61,42-112.1,98.6-126.2,4.4-1.1,7.2-5.5,6.4-9.9l-11.7-58.7c-2-9.9-12.1-15.9-21.8-12.9-64.6,20.3-114.6,73.3-130.8,139.6-13.2-23.7-22.1-50.1-25.6-78.1,12.3-18,26.7-34.4,43-48.7,3.9-39,18.1-74.9,39.8-105,1.3-1.9,3.9-2.2,5.7-.8,18.9,14.8,35.3,32.6,48.4,52.7,24.6-7.7,50.9-11.9,78.1-11.9s53.4,4.2,78,11.9c13.1-20.1,29.5-38,48.4-52.7,1.8-1.4,4.4-1,5.7.8,21.7,30.1,35.9,66,39.8,105,16.3,14.4,30.8,30.8,43,48.8-3.5,28.1-12.4,54.5-25.6,78.1ZM716,600.5c0,8.8-7.2,16-16,16s-16-7.2-16-16,7.2-16,16-16,16,7.2,16,16ZM524,600.5c0-8.8,7.2-16,16-16s16,7.2,16,16-7.2,16-16,16-16-7.2-16-16Z"/>
</svg>