<?xml version="1.0" encoding="UTF-8"?><svg id="Illustrations" xmlns="http://www.w3.org/2000/svg" viewBox="0 0 300 300"><polygon points="83.96 114.67 94 129.77 102.88 126.22 97.89 107.74 83.96 114.67" fill="#e95420"/><polygon points="80.05 136.87 94.52 136.87 74.08 106.14 71.03 115.45 80.05 136.87" fill="#e95420"/><polygon points="101.58 107.98 126.05 198.48 127.68 117.14 101.58 107.98" fill="#e95420"/><polygon points="57.42 127.49 75.59 135.3 69.87 121.71 57.42 127.49" fill="#e95420"/><polygon points="90.09 144.66 93.89 140.37 84.23 140.37 90.09 144.66" fill="#e95420"/><path d="M67.54,116.21c-.16-.39-.18-.82-.05-1.23l4.39-13.36c.21-.63.77-1.1,1.43-1.19.67-.09,1.32.2,1.69.76l7,10.53,16.24-8.07c.28-.14.58-.19.89-.18l.02-.06.44.15,24.36,8.55-30.37-35.89-30.15,26.67c-.14.12-.3.22-.47.3l-25.7,11.14,8.89,21.36,5.47-9.06c.09-.15.21-.29.35-.41l-.03-.06.44-.22,16.11-7.48-.96-2.28Z" fill="#e95420"/><path d="M124.21,78.34l-26.33-2.46,32.92,38.9c.28.33.42.74.41,1.17l-1.06,52.76,12.69,39.46,41.68-100.31-46.28-28.02-14.03-1.49Z" fill="#e95420"/><polygon points="70.92 137.1 53.84 129.76 49.03 137.73 70.92 137.1" fill="#e95420"/><polygon points="106.02 62.4 106.02 73.13 119.3 74.37 106.02 62.4" fill="#e95420"/><polygon points="200.2 180.6 230.25 203.19 212.98 172.91 200.2 180.6" fill="#e95420"/><polygon points="235.41 132.3 214.63 131.47 215.35 170.01 247.07 225.6 250.88 225.6 244.33 183.18 235.41 132.3" fill="#e95420"/><polygon points="245.77 171.16 249.46 142.1 249.45 119.69 240.84 111.08 235.51 113.11 238.61 130.29 245.77 171.16" fill="#e95420"/><polygon points="234.88 109.61 240.19 107.58 248.28 96.97 251.51 86.3 241.53 90.4 233.77 103.46 234.88 109.61" fill="#e95420"/><polygon points="125.71 223.01 140.56 212.54 129.93 179.47 129.3 210.74 129.36 210.75 129.23 211.25 125.71 223.01" fill="#e95420"/><polygon points="187.39 110.03 146.28 208.99 211.84 169.51 211.11 130.46 187.39 110.03" fill="#e95420"/></svg>