<?xml version="1.0" encoding="UTF-8"?><svg id="Illustrations" xmlns="http://www.w3.org/2000/svg" viewBox="0 0 300 300"><polygon points="147.23 113.88 134.51 83.84 132.01 106.75 147.23 113.88" fill="#e95420"/><polygon points="137.97 83.04 151.98 116.1 156.24 118.09 162.79 104.02 137.97 83.04" fill="#e95420"/><polygon points="172.15 92.2 145.72 148.98 169.77 142.4 184.52 124.5 172.15 92.2" fill="#e95420"/><path d="M122.22,112.06h.07l.03.49,1.17,42.52,17.8-4.87,13.47-28.92-57.21-26.79,24.01,16.68c.32.22.55.54.66.9Z" fill="#e95420"/><polygon points="176.26 204.24 189.29 137.67 182.34 132.65 172.12 145.06 172.12 145.06 123.41 204.24 176.26 204.24" fill="#e95420"/><polygon points="120.01 156.01 118.89 115.2 78.35 132.35 94.1 163.09 120.01 156.01" fill="#e95420"/><polygon points="165.92 147.09 95.73 166.28 116.59 207.01 165.92 147.09" fill="#e95420"/><polygon points="56.96 169.71 56.35 170.18 47.17 189.97 118.13 217.69 74.14 131.81 68.2 144.62 68.2 145.01 68.01 145.01 56.72 169.38 56.96 169.71" fill="#e95420"/><polygon points="254.81 185.07 192.41 139.93 181.89 193.74 254.81 185.07" fill="#e95420"/><polygon points="173.62 217.78 175.58 207.74 161.47 207.74 173.62 217.78" fill="#e95420"/><polygon points="116.96 112.21 82.8 88.48 93.35 122.21 116.96 112.21" fill="#e95420"/><polygon points="37.95 144.81 54.32 166.24 63.88 145.61 37.95 144.81" fill="#e95420"/><polygon points="90.11 123.57 89.23 120.75 44.66 112.86 66.19 140.59 73.59 124.01 76.72 129.24 90.11 123.57" fill="#e95420"/><polygon points="246.65 174.85 258.72 183.58 261.97 176.01 256.18 171.01 246.65 174.85" fill="#e95420"/></svg>