<?xml version="1.0" encoding="UTF-8"?><svg id="Illustrations" xmlns="http://www.w3.org/2000/svg" viewBox="0 0 300 300"><polygon points="79.65 115.69 70.49 112.66 35.09 154.92 39.06 157.63 45.25 158.68 86.37 117.91 79.65 115.69" fill="#e95420"/><path d="M90.82,212.32h12.02l.3-6.18-12.37,5.97s-.08.04-.06.13c.02.09.08.09.11.09Z" fill="#e95420"/><polygon points="75.51 110.64 88.6 114.96 92.46 105.08 75.51 110.64" fill="#e95420"/><polygon points="108.63 165.46 106.35 212.32 110.02 212.32 143.72 171.7 108.63 165.46" fill="#e95420"/><polygon points="141.58 212.21 141.6 212.32 160.7 212.32 158.85 204.8 141.58 212.21" fill="#e95420"/><polygon points="97.7 101.29 92.5 114.61 104.85 111.48 97.7 101.29" fill="#e95420"/><polygon points="250.7 163.74 224.67 104.01 219.43 104.01 218.75 105.97 252.16 183.67 250.7 163.74" fill="#e95420"/><polygon points="98.89 143.03 65.72 155.67 111.78 148.58 98.89 143.03" fill="#e95420"/><path d="M169.89,185.4l-47.69-85.84c-6.44,1.16-14.9,2.7-19.01,3.48l53.39,79.17,13.31,3.19Z" fill="#e95420"/><polygon points="125.78 98.79 157.79 156.41 173.62 87.84 125.78 98.79" fill="#e95420"/><polygon points="177.2 87.89 160.32 160.97 174.23 186 188.57 182.46 215.99 103.27 177.2 87.89" fill="#e95420"/><polygon points="131.19 149.13 80.6 156.92 143.35 168.08 131.19 149.13" fill="#e95420"/><polygon points="170.33 212.32 186.17 186.66 174.64 189.51 165.52 212.32 170.33 212.32" fill="#e95420"/><polygon points="76.41 93.64 71.25 108.35 81.09 105.12 76.41 93.64" fill="#e95420"/><polygon points="157.87 186.12 163.33 208.36 170.97 189.26 157.87 186.12" fill="#e95420"/><polygon points="245.74 204.1 240.39 212.32 254.26 212.32 253.65 204.1 245.74 204.1" fill="#e95420"/><polygon points="217.05 110.88 197.97 166 236.66 156.49 217.05 110.88" fill="#e95420"/><polygon points="253.4 200.6 252.94 194.36 238.06 159.75 208.61 166.99 245.47 200.6 253.4 200.6" fill="#e95420"/><path d="M107,114.55l-16.48,4.17-38.91,38.58,46.69-17.79c.43-.16.89-.15,1.31.03l18.68,8.04,10.7-1.65-22-31.37ZM94.4,129.1c-1.4,0-2.53-1.13-2.53-2.53s1.13-2.53,2.53-2.53,2.53,1.13,2.53,2.53-1.13,2.53-2.53,2.53Z" fill="#e95420"/></svg>