<?xml version="1.0" encoding="UTF-8"?><svg id="Illustrations" xmlns="http://www.w3.org/2000/svg" viewBox="0 0 300 300"><polygon points="214.14 137.71 221.36 132.06 162.88 126.57 214.14 137.71" fill="#e95420"/><polygon points="180.58 219.84 195.17 219.84 251.3 185.06 246.09 178.86 180.58 219.84" fill="#e95420"/><polygon points="220.17 190.95 183.42 164.44 139.02 180.27 178.4 217.07 220.17 190.95" fill="#e95420"/><polygon points="120.34 121.76 121.05 114.92 103.56 97.97 80.39 96.74 62.76 107.94 58.53 128.54 79.59 138.17 120.34 121.76" fill="#e95420"/><polygon points="223.37 188.95 260.03 166.01 263.59 152.01 235.46 145.89 187.43 163.01 223.37 188.95" fill="#e95420"/><polygon points="88.89 210.65 108.6 218.73 119.67 126.08 94.07 136.3 76.06 181.96 88.89 210.65" fill="#e95420"/><polygon points="143.2 125.85 120.32 150.14 118.96 161.52 136.34 177.64 228.98 144.49 143.2 125.85" fill="#e95420"/><polygon points="34.84 132.99 35.51 135.57 54.95 128.58 57.01 118.54 34.84 132.99" fill="#e95420"/><polygon points="118.45 165.83 112 219.84 176.24 219.84 118.45 165.83" fill="#e95420"/></svg>