<?xml version="1.0" encoding="UTF-8"?><svg id="Illustrations" xmlns="http://www.w3.org/2000/svg" viewBox="0 0 300 300"><polygon points="146.24 198.65 141.13 193.78 136.09 198.65 146.24 198.65" fill="#e95420"/><path d="M142.7,169.55l-1.29,4.63c-.12.44-.4.8-.79,1.03l-13.27,7.85,5.16,14.2,11.98-11.6-1.78-16.12Z" fill="#e95420"/><path d="M181.59,177.34l-.94-7.85-35.2-6.94,2.43,21.98,38.62-1.18-4.48-5.06c-.24-.26-.39-.59-.43-.95Z" fill="#e95420"/><polygon points="262.05 166.64 247.79 157.02 240.58 162.85 262.05 166.64" fill="#e95420"/><polygon points="228.92 137.29 210.36 156.47 215.52 168.58 235.6 156.09 237.34 140.33 228.92 137.29" fill="#e95420"/><polygon points="250.44 136.34 245.43 143.16 240.72 141.55 238.7 159.87 261.94 141.06 250.44 136.34" fill="#e95420"/><polygon points="204.71 198.65 215.24 198.65 204.53 193.25 202.75 196.43 204.71 198.65" fill="#e95420"/><path d="M227.19,134.04c.48-.49,1.2-.66,1.85-.43h0l15.06,5.44,3-4.08-14.31-5.86-28.73,12.55,4.82,11.31,18.32-18.93Z" fill="#e95420"/><polygon points="97.02 196.15 97.47 195.33 35.36 181.46 34.74 187.62 97.02 196.15" fill="#e95420"/><polygon points="200.38 178.98 192.79 185.18 200.26 193.62 201.73 190.84 200.38 178.98" fill="#e95420"/><path d="M146.52,144.12l-106.12,34.88,16.02,3.58,57.83-6.46,28.47-17.31c.08-.04.2-.09.35-.12.07-.02.15-.02.23-.03.11-.01.18-.03.28-.02l.21.03,36.42,7.17-2.31-19.21-31.38-2.51Z" fill="#e95420"/><polygon points="118.87 177.4 125.1 180.33 138.22 172.56 140.56 164.18 118.87 177.4" fill="#e95420"/><polygon points="185 176.38 190.47 182.56 210.65 166.07 203.23 148.65 181.46 146.91 185 176.38" fill="#e95420"/></svg>