<?xml version="1.0" encoding="UTF-8"?><svg id="Illustrations" xmlns="http://www.w3.org/2000/svg" viewBox="0 0 300 300"><polygon points="83.25 89.63 85.9 73.08 70.1 79.6 71.26 83.21 83.25 89.63" fill="#e95420"/><polygon points="103.14 56.67 89.77 71.07 88.96 76.11 106.1 82.78 106.54 80.81 103.14 56.67" fill="#e95420"/><path d="M95.01,97.05l-10.78-3-.02.04-.45-.22-14.78-7.91c-.4-.21-.7-.57-.84-1.01l-1.37-4.27-22.17,5.47v12.02l35.81,16.78,17.11-8.37-2.5-9.53Z" fill="#e95420"/><polygon points="36.8 94.52 41.1 96.54 41.1 87.02 36.8 88.08 36.8 94.52" fill="#e95420"/><path d="M235.29,195.42c-.07.25-.2.48-.39.68l21.33,54.33h2.91l-16.46-80.98-7.4,25.98Z" fill="#e95420"/><path d="M96.92,93.95c.6.17,1.06.64,1.22,1.24l1.99,7.58,2.57-4.81,2.62-11.73-16.93-6.59-1.83,11.42,10.36,2.89Z" fill="#e95420"/><polygon points="120.24 127.35 168.79 189.04 200.35 184.04 165.43 127.35 120.24 127.35" fill="#e95420"/><path d="M114.58,125.29l-10.34-22.76-3.12,5.83c-.17.33-.44.58-.78.75l-17.74,8.68,11.17,31.12,20.81-23.6Z" fill="#e95420"/><polygon points="95.71 151.98 143.73 186.59 164.45 189.18 116.56 128.33 95.71 151.98" fill="#e95420"/><polygon points="245.63 149.82 253.52 123.91 244.59 112.51 238.34 125.84 242.58 149.82 245.63 149.82" fill="#e95420"/><polygon points="169.54 127.35 204.37 183.89 232.41 192.73 241.17 161.96 235.05 127.35 169.54 127.35" fill="#e95420"/><polygon points="92.49 250.42 162.16 192.43 143.76 190.13 89.35 250.42 92.49 250.42" fill="#e95420"/></svg>