<?xml version="1.0" encoding="UTF-8"?><svg id="Illustrations" xmlns="http://www.w3.org/2000/svg" viewBox="0 0 300 300"><polygon points="111.79 110.86 111.79 96.28 98.03 118.29 111.79 110.86" fill="#e95420"/><polygon points="251.11 137.32 252 146.37 260.42 143.11 257.19 125.4 251.11 137.32" fill="#e95420"/><polygon points="65.76 49.52 61.55 56.92 68.22 57.32 65.76 49.52" fill="#e95420"/><polygon points="248.41 145.71 247.83 139.67 242.34 142.38 248.41 145.71" fill="#e95420"/><polygon points="46.02 55.54 36.44 64.05 38.72 73.46 51.08 66.38 46.02 55.54" fill="#e95420"/><polygon points="53.55 63.41 57.13 57.61 62.29 48.55 48.99 53.64 53.55 63.41" fill="#e95420"/><polygon points="239.51 109.66 240.26 122.28 249.4 132.97 255.71 120.57 239.51 109.66" fill="#e95420"/><polygon points="104.18 223.92 124.04 182.13 119.37 182.13 95.71 194.87 96.75 226.73 104.18 223.92" fill="#e95420"/><path d="M124.76,147.92l-6.71,2.34-20.03,39.39,20.08-10.81c.26-.14.54-.21.83-.21h12.22l3.61-3.2-10-27.52Z" fill="#e95420"/><path d="M181.6,192.58l9.84-8.82-18.22-2.24-6.96,9.07v8.08l14.32-5.87c.12-.05.24-.08.36-.1l.66-.12Z" fill="#e95420"/><polygon points="163.33 102.68 160.53 93.74 157 93.67 150.99 98.21 158.48 104.85 163.33 102.68" fill="#e95420"/><path d="M149.05,176.04l5.43-4.03-.77-66.71-5.57-4.94-.08.06c-.58.44-1.38.47-2,.08l-16.58-10.62-14.19,1.84v19.89l22.81,62.78,10.95,1.66Z" fill="#e95420"/><path d="M235.93,108.39l-59.03-10.34c-.51-.09-.95-.4-1.21-.85l-5.73-9.9-2.74.49v4.3c0,.47-.19.92-.53,1.25-.29.29-.71.46-1.21.5l-1.26-.03,2.92,9.29c.27.85-.14,1.76-.96,2.12l-5.13,2.29,14.24,16.06,18.76-5.1c.18-.05.37-.07.57-.06l42.07,2.66-.76-12.7Z" fill="#e95420"/><polygon points="190.31 161.19 157.66 144.12 157.93 167.85 190.31 161.19" fill="#e95420"/><path d="M110.53,225.27l-14.83,5.59-16.87,6.56-13.93,17.17h38.89l8.32-11.58c.15-.21.34-.38.57-.51l67.31-37.5c.13-.08.28-.13.42-.17l58.66-14.81c.17-.04.33-.06.52-.05l20.38,1.07.38-2.11-20.63-2.94-58.01,10.11-71.19,29.16Z" fill="#e95420"/><path d="M129.66,86.33c.07,0,.15-.01.22-.01.33,0,.66.1.94.28l16.09,10.31,8.45-6.38c.28-.21.64-.33,1.06-.35l7.29.15v-3.56l-8.1-16.04-6.02,4.52c-.18.13-.38.23-.6.29l-17.6,4.73-10.74,7.24,9.01-1.17Z" fill="#e95420"/><polygon points="53.49 69.03 40.52 76.46 91.05 122.85 110.93 91.05 53.49 69.03" fill="#e95420"/><polygon points="170.04 177.6 193.72 180.51 193.72 164.06 165.78 169.81 170.04 177.6" fill="#e95420"/></svg>