<?xml version="1.0" encoding="UTF-8"?><svg id="Illustrations" xmlns="http://www.w3.org/2000/svg" viewBox="0 0 300 300"><polygon points="76.67 166.86 70.76 176.45 83.97 171.36 81.36 177.17 91.08 173.11 89.05 181.09 97.52 173.78 99.24 177.67 105.23 166.11 76.67 166.86" fill="#e95420"/><polygon points="143.81 149.15 149.52 130.85 126.2 124.35 134.17 154.23 143.81 149.15" fill="#e95420"/><polygon points="174.58 50.09 167.36 48.97 152.05 69.15 160.14 96.77 174.58 50.09" fill="#e95420"/><polygon points="130.87 155.97 122.45 124.41 96.02 135.5 78.96 163.15 119.21 162.1 130.87 155.97" fill="#e95420"/><polygon points="131.01 226.1 173.46 215.42 178.5 207.33 135.81 216.12 129.7 225.54 131.01 226.1" fill="#e95420"/><polygon points="142.28 154.08 120.16 165.72 109.38 166 106.96 170.68 112.29 174.65 138.71 165.53 142.28 154.08" fill="#e95420"/><polygon points="161.79 48.1 153.8 50.42 141.03 59.28 136.96 83.02 163.27 48.33 161.79 48.1" fill="#e95420"/><polygon points="182.3 60.61 177.67 52.12 172.79 66.53 182.3 60.61" fill="#e95420"/><path d="M130.43,261.52c1.87-2.63,3.33-4.68,4.49-6.29l-18.72-35.58h-8.48l22.7,41.87Z" fill="#e95420"/><polygon points="107.68 216 116.2 216 118.49 208.87 114.53 189.94 107.68 216" fill="#e95420"/><path d="M154.24,263.12l-3.19-5.95h-13.01c-1.31,1.81-2.81,3.91-4.27,5.95h20.48Z" fill="#e95420"/><polygon points="201.28 78.44 212.61 85.56 203.71 72.41 185.44 62.95 175.19 69.32 201.28 78.44" fill="#e95420"/><polygon points="176.24 132.08 171.68 72 148.37 146.75 176.24 132.08" fill="#e95420"/><polygon points="184.73 232.78 187.34 229.44 182.22 208.26 176.95 216.7 184.73 232.78" fill="#e95420"/><polygon points="145.2 156.93 169.9 139.54 146.84 151.68 145.2 156.93" fill="#e95420"/><polygon points="115.62 177.36 123.89 216.87 123.73 216.9 125.2 223.63 126.29 224.1 132.93 213.87 129.41 174.99 137.12 170.6 137.36 169.84 115.62 177.36" fill="#e95420"/></svg>