<?xml version="1.0" encoding="UTF-8"?><svg id="Illustrations" xmlns="http://www.w3.org/2000/svg" viewBox="0 0 300 300"><polygon points="135.57 70.96 123.76 77.58 130.97 87.75 137.06 91.3 135.57 70.96" fill="#e95420"/><polygon points="89.16 188.22 81.05 151.71 79.63 178.82 89.16 188.22" fill="#e95420"/><polygon points="124.48 56.99 113.51 73.28 120.85 75.05 134.27 67.52 124.48 56.99" fill="#e95420"/><path d="M192.62,134.83l-70-10.67,4.71,30.32c.02.15.03.29.01.44l-3.5,38.36,35.99-2.21,11.52-6.88,31.35-34.94-10.08-14.43Z" fill="#e95420"/><polygon points="127.4 102.85 136.08 94.92 130.39 91.61 125.16 100.72 127.4 102.85" fill="#e95420"/><polygon points="231.77 175.18 238.05 162.48 238.05 152.58 198.6 137.05 206.45 148.28 231.77 175.18" fill="#e95420"/><polygon points="107.52 170.34 78.38 122.91 93.96 193.1 104.75 208.93 110.68 207.08 107.52 170.34" fill="#e95420"/><polygon points="91.16 98.18 97.29 77.2 78.53 73.41 72.93 91.87 91.16 98.18" fill="#e95420"/><polygon points="71.52 108.82 45.86 140.46 77.37 152.65 78.07 139.12 71.52 108.82" fill="#e95420"/><polygon points="247.29 176.43 241.29 164.11 236.94 172.91 247.29 176.43" fill="#e95420"/><polygon points="58.55 149.5 51.19 146.65 47.7 157.38 58.55 149.5" fill="#e95420"/><polygon points="82.04 70.42 98.28 73.69 102.84 57.17 82.04 70.42" fill="#e95420"/><polygon points="111.66 253.68 114.68 253.68 118.83 208.34 106.01 212.34 111.66 253.68" fill="#e95420"/><polygon points="117.31 113.89 116.87 111.21 72.36 95.83 75.74 111.03 117.31 113.89" fill="#e95420"/><polygon points="107.21 54.99 102.06 73.67 109.5 72.74 120.95 55.72 107.21 54.99" fill="#e95420"/><polygon points="203.25 224.99 233.79 182.63 205.05 152.08 174.85 185.73 203.25 224.99" fill="#e95420"/><polygon points="205.49 253.68 223.49 229.91 205.95 229.91 203.15 253.68 205.49 253.68" fill="#e95420"/><path d="M77.65,114.8l33.19,54.01c.15.24.24.51.26.79l3.12,36.37,4.96-1.55,4.53-49.61-5.81-37.24-40.25-2.77Z" fill="#e95420"/><polygon points="206.8 226.28 223.96 226.28 216.25 213.17 206.8 226.28" fill="#e95420"/></svg>