<?xml version="1.0" encoding="UTF-8"?><svg id="Illustrations" xmlns="http://www.w3.org/2000/svg" viewBox="0 0 300 300"><polygon points="169.06 89.45 193.64 65.63 190.02 60.7 165.85 82.47 169.06 89.45" fill="#e95420"/><polygon points="125.85 96.37 125.84 96.37 125.84 106.26 142.14 102.08 124.91 59.18 125.85 96.37" fill="#e95420"/><polygon points="162.75 84.12 141.1 90.83 145.56 101.21 150.98 99.81 166.21 91.69 162.75 84.12" fill="#e95420"/><polygon points="144.38 156.44 138.48 149.22 133.44 170.89 144.38 156.44" fill="#e95420"/><polygon points="195.45 62.58 199.96 48.03 192.55 57.94 195.45 62.58" fill="#e95420"/><polygon points="82.36 87.54 97.9 104.09 100.63 95.31 82.36 87.54" fill="#e95420"/><rect x="81.38" y="89.83" width=".5" height="0" transform="translate(-39.74 90.67) rotate(-48.13)" fill="#e95420"/><polygon points="100.44 260.89 101.28 254.74 93.95 260.89 100.44 260.89" fill="#e95420"/><polygon points="127.11 109.54 140.52 126.75 148.83 103.98 127.11 109.54" fill="#e95420"/><polygon points="218.51 216.86 218.51 242.68 226.01 217.41 218.51 216.86" fill="#e95420"/><path d="M110.97,200.57l17.28-22.83,8.7-37.39-5.49,8.91c-.27.45-.73.74-1.25.81l-12.92,1.76-8.41,35.19,2.09,13.53Z" fill="#e95420"/><path d="M92.04,125.77l1.2,4.79,40.49-6.82-10.27-13.17-30.7,13.73c-.57.25-.87.87-.72,1.48Z" fill="#e95420"/><polygon points="108.88 149.09 115.69 148.54 128.91 146.73 138.96 130.43 136.17 126.86 94.39 134.29 99.63 144.07 108.88 149.09" fill="#e95420"/><polygon points="110.07 260.89 122.61 219.15 109.99 216.96 103.97 260.89 110.07 260.89" fill="#e95420"/><polygon points="122.34 106.66 122.34 95.31 104.08 96.15 101.14 105.42 122.34 106.66" fill="#e95420"/><polygon points="144.21 249.95 136.37 260.89 154.03 260.89 150.64 249.01 144.21 249.95" fill="#e95420"/><path d="M151.35,202.77l52.61-8.06-56.93-35.97-35.49,46.88-1.08,7.88,32.97,5.72,6.57-15.4c.24-.56.74-.95,1.34-1.04Z" fill="#e95420"/><polygon points="157.67 260.89 190.45 260.89 152.02 208.02 146.36 221.29 157.67 260.89" fill="#e95420"/><polygon points="154.72 205.79 194.78 260.89 194.86 260.89 215.01 253.51 215.01 215.32 207.76 197.67 154.72 205.79" fill="#e95420"/><path d="M97.55,199.69l8.72,18.61,1.83-13.36-2.76-17.85.02-.09,8.23-34.78c-5.63.37-5.79.29-5.93.21l-7.97-4.32-13.95,14.5,3.68.76-4.75,15.44h4.01l-1.72,13.09,1.9-.64,3.36,9.84,5.31-1.4Z" fill="#e95420"/></svg>