<?xml version="1.0" encoding="UTF-8"?><svg id="Illustrations" xmlns="http://www.w3.org/2000/svg" viewBox="0 0 300 300"><path d="M151.42,104.42c-1.26,0-2.29,1.03-2.29,2.29s1.03,2.29,2.29,2.29,2.29-1.03,2.29-2.29-1.03-2.29-2.29-2.29Z" fill="none"/><path d="M167.85,104.91c-.11-.29-.39-.49-.7-.49h-2.21c-.31,0-.6.2-.7.49l-.12.18-4.76,4.76c-.14.14-.22.33-.22.53v15.81c0,.41.34.75.75.75h12.3c.41,0,.75-.34.75-.75v-15.81c0-.2-.08-.39-.22-.53l-4.87-4.94ZM171.44,125.44h-10.8v-14.75l4.77-4.77h1.26l4.77,4.77v14.75Z" fill="none"/><path d="M181.05,104.42c-1.26,0-2.29,1.03-2.29,2.29s1.03,2.29,2.29,2.29,2.29-1.03,2.29-2.29-1.03-2.29-2.29-2.29Z" fill="none"/><polygon points="100.47 155.01 85.1 195.01 100.28 180.92 107.81 158.69 100.47 155.01" fill="#e95420"/><path d="M96.22,152.87c-.51-.26-.86-.74-.95-1.31l-1.37-9.19-32.53,30.08,20.13-5.76,15.01-13.68-.29-.14Z" fill="#e95420"/><path d="M84.15,136.96l-15.91,13-9.89,20.51c25.55-23.62,33.05-30.51,35.3-32.53l-9.5-.97Z" fill="#e95420"/><path d="M215.27,138.65l-11.5-11.66-13.67,12.23c-.32.29-.73.45-1.17.45h-14.45l-22.62,39.37-30.42,52.45,4.14,11.34,81.94-30.56,9.19-22.02-1.44-51.58Z" fill="#e95420"/><polygon points="83.65 109.43 57.36 106.71 31.97 115.52 90.77 118.63 83.65 109.43" fill="#e95420"/><path d="M137.07,242.27l-11.92,4.45c-.43.16-.92.14-1.35-.05-.42-.19-.75-.55-.91-.99l-5.02-13.77c-.18-.49-.13-1.03.13-1.48l12.94-22.31-17.3-46.51-2.66-1.33-7.55,23.1,19.38,81.99,14.26-23.1Z" fill="#e95420"/><polygon points="147.93 178.83 118.23 163.92 133.21 204.2 147.93 178.83" fill="#e95420"/><path d="M143.14,139.66c-.43,0-.85-.16-1.17-.45l-11.58-10.36-33.31,11.17,1.51,10.12,51.08,25.64,20.76-36.13h-27.3Z" fill="#e95420"/><polygon points="218.03 75.66 211.1 93.66 225.5 91.99 218.03 75.66" fill="#e95420"/><polygon points="209.68 97.35 206.76 104.92 209.43 109.65 223.3 95.77 209.68 97.35" fill="#e95420"/><polygon points="204.53 100.97 215.34 72.9 188.71 72.9 204.53 100.97" fill="#e95420"/><path d="M95.22,158.92l-11.67,10.63c-.2.18-.44.31-.7.39l-1.96.56.48,24.42,13.84-36Z" fill="#e95420"/><polygon points="106.57 91.99 120.98 93.66 114.05 75.66 106.57 91.99" fill="#e95420"/><polygon points="122.4 97.35 108.77 95.77 122.65 109.65 125.31 104.92 122.4 97.35" fill="#e95420"/><polygon points="80.35 134.51 90.34 124.37 32.84 121.33 54.17 133.23 80.35 134.51" fill="#e95420"/><path d="M182.89,69.71h-33.7l-26.71,47.37,21.34,19.08h44.45l21.34-19.08-26.71-47.37ZM151.42,110c-1.81,0-3.29-1.48-3.29-3.29s1.48-3.29,3.29-3.29,3.29,1.48,3.29,3.29-1.48,3.29-3.29,3.29ZM173.94,126.19c0,.96-.79,1.75-1.75,1.75h-12.3c-.96,0-1.75-.79-1.75-1.75v-15.81c0-.46.19-.91.51-1.24l4.69-4.69c.28-.62.91-1.03,1.6-1.03h2.21c.69,0,1.32.41,1.6,1.03l4.69,4.69c.33.33.51.78.51,1.24v15.81ZM181.05,110c-1.81,0-3.29-1.48-3.29-3.29s1.48-3.29,3.29-3.29,3.29,1.48,3.29,3.29-1.48,3.29-3.29,3.29Z" fill="#e95420"/><polygon points="127.54 100.97 143.37 72.9 116.74 72.9 127.54 100.97" fill="#e95420"/><polygon points="165.82 106.92 161.64 111.1 161.64 124.44 170.44 124.44 170.44 111.1 166.25 106.92 165.82 106.92" fill="#e95420"/><polygon points="103.96 134.51 84.93 86.88 75.44 90.08 97.77 121.67 86.98 133.76 96.35 134.86 96.74 136.83 103.96 134.51" fill="#e95420"/></svg>